<svg viewBox="0 0 665 473" fill="none" xmlns="http://www.w3.org/2000/svg">
<path fill-rule="evenodd" clip-rule="evenodd" d="M515.421 60.0018C515.655 62.0265 518.169 60.4803 518.404 61.5778C518.552 62.2674 515.964 63.9788 515.406 64.4502C517.209 65.5367 519.51 63.0334 520.862 61.9845C521.558 62.7401 521.793 63.137 521.154 64.0014C520.026 65.5276 520.077 63.5055 518.735 64.5674C519.294 65.5063 519.785 64.9682 520.494 64.7156C520.186 66.5222 520.878 65.3787 521.42 66.5228C521.86 67.4533 521.806 68.141 521.938 69.1802C521.301 70.6436 520.664 72.1076 520.027 73.571C519.261 75.3316 519.489 75.8975 517.615 75.3089C517.826 74.9437 519.228 73.1579 519.114 72.7189C518.984 72.2171 517.067 71.5229 516.561 71.1014C515.67 70.36 515.68 69.7241 515.111 68.9277C515.337 68.187 515.162 67.8405 514.583 67.8904L513.945 69.6069C513.998 70.8249 515.027 70.711 515.634 71.8745C516.563 73.6552 516.043 72.6043 515.283 74.0372C514.537 75.4449 514.454 77.2417 513.227 77.9495C513.887 78.2389 514.545 78.5283 515.204 78.8171C513.666 80.5058 516.866 79.6835 517.395 79.5197C516.854 80.669 516.312 81.8183 515.772 82.9677C514.149 82.0599 513.349 80.3388 512.269 78.9175L509.802 83.5032C510.621 83.4274 511.439 83.3523 512.256 83.2765C512.142 83.4922 511.095 84.9711 511.184 85.3C511.55 86.641 514.334 85.8847 514.026 87.6388C513.986 87.8635 511.491 90.3804 511.063 90.6232C512.317 91.1865 512.884 90.9528 512.435 92.4323L510.688 91.3763C510.192 92.2666 509.618 93.1362 509.302 94.1113C509.362 94.7491 509.248 95.3533 508.96 95.9244C508.616 96.4353 508.23 96.9118 507.8 97.3534C507.459 98.2502 507.35 103.145 507.76 103.944C508.676 102.761 510.723 104.849 507.268 104.849C505.756 104.849 505.857 104.534 505.279 105.863C504.825 106.909 504.579 107.821 505.868 107.921C504.899 109.831 505.106 111.302 505.018 113.337C504.947 114.986 504.485 116.625 504.142 118.242C504.449 117.801 504.756 117.361 505.063 116.92C505.89 118.684 505.26 120.169 504.867 122.057C504.008 120.923 503.903 122.946 503.169 122.736C501.671 122.309 502.793 121.994 502.184 121.012C501.656 120.161 501.711 119.917 500.736 119.397C499.443 118.708 497.175 118.682 495.712 118.438C493.251 118.028 490.787 117.925 488.298 117.817C478.981 117.413 469.695 117.309 460.379 117.821C451.808 118.293 443.029 119.494 434.624 121.122C425.676 122.855 416.924 124.453 408.258 127.384C406.584 127.951 404.907 129.133 403.233 129.548C401.645 129.942 400.054 129.937 398.398 130.512C394.433 131.888 390.331 132.932 386.336 134.246C382.031 135.662 377.371 136.843 373.274 138.803C371.494 139.655 369.879 140.809 368.1 141.672C366.424 142.484 363.606 143.226 362.721 145.102C362.376 145.834 362.434 146.364 362.649 147.122C363.079 148.644 363.418 148.48 364.586 148.377C366.211 148.233 368.315 146.968 369.893 146.471C374.213 145.11 378.585 144.02 382.978 142.93C390.868 140.971 398.789 137.503 406.575 136.146C411.192 135.342 415.567 133.155 420.209 132.329C421.228 132.148 424.177 130.694 425.013 131.197C425.234 131.33 425.777 132.925 425.968 133.306C426.653 134.677 427.439 135.999 428.36 137.226C431.135 140.926 434.858 143.906 438.18 147.095C441.975 150.737 445.273 154.755 448.776 158.664C449.08 158.311 449.384 157.958 449.687 157.606C449.367 160.075 451.216 161.856 452.728 163.532C454.522 165.524 455.965 167.396 457.38 169.667C458.541 171.529 460.027 173.159 461.339 174.856C462.628 176.525 463.487 178.54 464.674 180.338C467.399 184.47 470.08 188.682 472.828 192.758C474.122 194.676 475.143 196.835 476.167 199.019C476.98 200.752 479.425 204.297 479.425 205.979C479.249 206.802 481.035 211.757 479.126 209.422C478.822 209.893 478.517 210.365 478.211 210.836C478.734 210.617 479.255 210.398 479.778 210.18C478.193 211.615 481.153 211.8 481.218 212.602C480.954 212.856 480.691 213.111 480.427 213.365C479.976 214.294 479.39 214.414 478.669 213.727C477.875 213.775 477.716 213.331 476.83 213.627C477.676 214.947 478.766 214.113 479.194 215.937C479.571 217.545 478.377 217.89 477.115 218.841L477.036 218.9L477.008 218.995C476.733 219.817 475.953 219.467 475.084 219.288C473.005 218.86 470.709 218.04 468.685 217.408C464.309 216.044 459.9 214.894 455.377 213.961C445.056 211.831 434.817 211.932 424.402 211.258C424.676 210.117 424.678 210.218 424.353 209.511C424.77 210.417 422.254 209.234 424.15 211.236C419.311 212.028 414.083 211.433 409.175 211.696C409.404 211.187 409.929 210.602 409.438 210.233C407.114 213.593 399.349 212.153 395.511 212.634C393.257 212.917 391.03 213.459 388.784 213.815L387.839 213.964C387.05 214.089 386.262 214.226 385.491 214.435C384.498 214.702 382.845 215.801 381.904 215.546C383.281 212.77 381.693 215.173 381.477 215.205C380.823 215.301 379.696 215.522 378.757 215.522C379.828 211.221 381.665 207.259 382.405 202.83C382.867 200.069 384.135 195.622 381.405 193.665C379.909 192.593 377.457 192.361 375.725 191.996C373.827 191.597 370.51 191.613 368.858 190.54C367.568 189.701 367.295 188.931 365.606 188.29C363.657 187.55 362.758 186.816 360.789 187.414C361.59 186.411 362.712 185.679 361.14 184.654C360.496 184.235 359.233 184.799 359.007 183.882C357.84 184.706 358.117 185.372 357.805 186.502C357.833 186.98 357.959 187.436 358.183 187.868C357.565 188.117 356.948 188.366 356.33 188.614C356.723 187.559 355.571 188.188 355.341 187.67C354.998 186.894 355.202 185.711 355.202 184.87C353.929 185.272 352.598 185.77 352.041 187.095C350.482 186.165 351.101 186.102 351.9 184.708C350.592 184.398 350.314 185.072 350.116 186.156C349.425 185.942 348.734 185.729 348.044 185.516C349.6 185.505 349.974 184.289 350.011 182.968C349.405 183.165 348.8 183.362 348.194 183.559C348.069 184.198 347.945 184.837 347.821 185.476C346.867 186.284 344.386 184.825 343.581 184.407C340.775 182.952 339.748 182.532 340.143 179.225C340.474 176.454 341.206 173.669 341.369 170.883C341.55 167.789 341.188 164.48 340.917 161.395C340.391 155.425 339.545 149.543 339.248 143.549C339.089 140.303 338.91 137.057 338.782 133.81C338.681 131.229 337.79 128.389 341.01 128.16C340.617 126.91 341.796 125.465 343.012 124.781C343.438 123.811 343.903 123.725 344.408 124.522C344.847 124.66 345.255 124.595 345.633 124.326C347.406 123.924 349.532 121.408 351.124 120.501C352.684 119.612 356.087 118.32 357.201 116.823C358.279 115.374 356.649 115.537 356.979 114.21C357.428 112.396 359.066 115.001 359.317 115.364C359.864 114.814 361.954 113.783 361.929 112.984C361.417 112.893 360.906 112.802 360.394 112.71C360.953 112.387 362.194 111.423 362.845 111.295C363.951 111.078 363.536 110.798 364.422 112.017C364.731 111.539 365.48 109.969 365.95 109.651C366.174 109.499 367.505 109.398 367.784 109.299C369.233 108.787 369.087 107.66 370.152 107.124C370.669 106.864 371.305 107.263 371.739 107.074C372.431 106.771 372.433 105.737 373.062 105.362C373.606 105.037 374.985 105.307 375.635 105.07C376.711 104.677 376.664 104.312 377.466 103.594C378.592 102.589 379.629 102.734 380.883 101.972C382.184 101.182 381.984 99.4034 383.164 99.0641C384.739 98.6115 385.143 100.103 385.999 98.6297C386.192 98.2988 385.318 97.8041 385.867 97.2731C386.543 96.6191 386.822 97.3994 387.133 97.9077L388.202 95.8894C389.917 96.8283 389.197 95.6174 390.505 94.9725C391.086 94.6863 391.565 95.2516 392.201 94.9058C392.669 94.652 392.75 94.099 393.086 93.7565C393.733 93.098 394.09 92.1941 395.091 91.8807C394.729 91.9933 397.695 91.9079 397.43 91.7809C397.142 91.3575 396.853 90.934 396.564 90.5105C398.116 90.5105 399.471 90.6646 400.973 90.1984C401.505 90.034 402.335 89.7801 402.778 89.4421C403.993 88.513 403.719 88.7396 403.719 87.0327C405.396 88.0998 407.53 87.7269 409.184 86.4895C410.048 85.8433 410.602 85.0701 411.549 84.4861C411.955 84.2756 412.369 84.0788 412.789 83.8962C413.315 83.3523 413.841 83.3471 414.369 83.8813C415.115 83.6812 415.106 83.5433 415.684 83.1814C415.85 82.8537 416.026 82.5319 416.215 82.2166C416.836 82.1518 417.447 82.0398 418.05 81.8805C420.393 81.2505 421.807 79.6874 423.98 81.0724C424.258 80.5058 424.537 79.9386 424.814 79.3714C425.739 80.8166 426.372 79.4362 427.599 78.8508C428.114 78.6054 428.782 78.5445 429.247 78.3205L430.033 78.5063C430.255 77.82 430.477 77.1336 430.698 76.4472C431.146 76.6214 432.919 77.5739 433.452 77.5234C434.216 77.4515 435.129 76.1585 435.869 75.9143C436.999 75.542 436.594 76.0341 437.703 76.0419C438.556 76.0477 438.958 76.1688 439.695 75.4527C437.204 74.8058 440.346 74.5008 441.396 74.282C443.031 73.9414 443.873 74.3053 445.009 73.0135H443.83C444.993 71.9548 444.602 72.3284 445.827 72.432C446.213 72.4638 447.891 73.3852 447.894 72.1562C449.477 73.0893 449.495 73.0912 451.127 72.6703C451.85 72.4838 452.465 71.8771 453.26 71.8629C454.035 71.8493 454.59 72.1996 455.282 72.1245C455.695 72.0804 457.144 71.5372 457.633 71.3591C458.41 71.0761 458.921 70.472 459.664 70.2383C460.481 69.9799 461.521 70.2868 462.38 70.0984C464.933 69.5364 466.431 68.0082 469.195 68.8358C469.491 66.3616 472.574 66.912 474.234 67.1671C475.389 67.3452 475.977 67.8127 477.173 67.2468C478.147 66.7864 478.702 66.056 479.786 65.6882C480.617 65.4059 481.738 65.2006 482.606 65.0206C483.143 64.851 483.691 64.7966 484.251 64.8581C484.814 64.937 485.286 65.1819 485.666 65.5918L485.736 65.6727C485.823 65.4684 487.131 64.4995 486.981 64.6192C487.957 63.8376 488.415 64.1361 489.015 62.6145L486.922 62.1729C488 62.1004 488.809 61.976 489.767 62.395C490.43 62.6844 491.543 64.2184 492.207 64.2197C493.406 64.2209 493.826 62.5303 493.707 61.6503C494.714 63.995 495.573 64.3854 497.834 63.1869C498.1 63.0457 498.366 62.9052 498.631 62.764C499.169 62.2001 499.704 62.2104 500.236 62.7958L501.184 63.3118C501.564 62.6792 501.944 62.0473 502.325 61.4146C503.131 62.5258 503.898 62.5802 505.214 62.3205C506.121 62.1411 507.983 60.4971 508.652 60.4978C509.04 60.4978 509.535 61.4431 510.182 61.6277C511.253 61.9346 512.916 61.1628 513.297 60.1384C513.5 60.5658 513.703 60.9938 513.905 61.4218C514.41 60.9491 514.918 60.4777 515.421 60.0018ZM477.002 218.892L477 218.929L477.036 218.9L477.037 218.899L477.002 218.892ZM475.688 216.662V218.653L476.362 218.776L477.002 218.892L477.008 218.783C477.037 217.826 476.546 217.116 475.688 216.662ZM416.104 208.74C415.894 209.385 415.684 210.031 415.474 210.676C416.182 210.733 416.89 210.791 417.599 210.849C417.1 210.146 416.602 209.443 416.104 208.74ZM332.946 157.72C334.494 158.172 334.473 158.117 334.784 159.549C336.552 167.702 331.08 177.052 335.098 184.801C323.354 184.706 311.587 184.94 299.913 186.316C299.913 181.877 300.058 177.447 299.723 173.015C299.571 171.003 299.343 168.999 299.138 166.992C298.878 164.445 298.961 164.594 301.045 164.156C302.14 163.925 302.532 163.231 303.578 162.808C304.364 162.49 304.716 162.882 305.49 162.99C306.875 163.186 306.892 162.953 308.161 162.683C310.885 162.102 313.199 162.309 315.351 160.275C316.467 160.179 316.105 161.212 316.883 161.111C317.448 161.037 317.808 159.982 318.385 159.73C320.18 158.945 323.167 159.136 325.13 158.891C327.135 158.641 328.91 157.736 330.83 157.468C331.62 157.358 332.197 157.501 332.946 157.72ZM355.599 181.248C355.22 182.658 353.557 180.823 353.531 181.928L353.533 182.026L353.536 182.001C353.624 181.815 355.305 184.04 355.206 183.966C356.11 184.647 356.636 184.583 357.66 183.802C355.827 183.733 356.029 182.602 355.599 181.248ZM360.705 183.24C361.374 183.608 361.578 182.667 361.925 182.093C361.178 181.72 361.068 182.587 360.705 183.24ZM358.635 177.107C358.895 178.023 358.876 178.725 358.876 179.67C360.423 179.451 360.91 179.339 360.938 177.693L360.111 178.213C359.677 177.354 359.582 177.287 358.635 177.107ZM346.664 178.64C347.014 178.415 347.364 178.189 347.715 177.963C347.198 177.219 346.279 178.103 346.664 178.64ZM350.576 164.961L351.918 164.257C350.757 162.778 350.672 163.275 350.576 164.961ZM348.959 153.225H347.201C347.545 154.356 348.959 154.599 348.959 153.225ZM521.263 87.4497C521.665 87.6841 522.067 87.9185 522.468 88.1522C521.425 89.1034 520.141 90.0624 521.158 91.1774C521.965 92.0626 525.735 92.4847 526.864 92.8072C526.473 93.2579 525.665 94.4894 525.131 94.7996C524.707 95.045 524.321 94.0731 523.467 95.0411C524.883 95.7754 524.503 95.2192 524.136 96.7764C523.919 97.6952 523.142 98.682 522.705 99.5063C521.64 101.512 520.55 103.504 519.434 105.481C517.142 109.535 514.729 113.522 512.194 117.429C511.767 115.222 512.989 112.749 513.623 110.62C514.421 107.941 515.22 105.263 516.023 102.585C517.573 97.4259 518.963 92.3203 521.263 87.4497ZM459.759 94.1819C458.613 94.4739 457.863 94.6643 456.678 94.966C458.399 95.5138 458.399 95.5138 459.759 94.1819ZM510.475 84.2368C509.014 84.9206 508.858 85.4172 510.04 86.2538C510.18 85.6031 510.283 85.1258 510.475 84.2368ZM510.297 68.0562C510.099 68.9245 508.871 68.0892 508.599 68.7237C507.976 70.1755 509.956 69.9786 510.67 69.8912C510.546 69.2793 510.421 68.6681 510.297 68.0562ZM518.575 66.9541C518.184 68.8105 518.184 68.8105 519.995 69.0896C519.519 68.3747 519.121 67.7751 518.575 66.9541ZM485.736 65.6727L485.733 65.6924C485.734 65.6999 485.74 65.7048 485.75 65.7069L485.768 65.7076L485.736 65.6727Z" fill="#CBFBF1"/>
<path fill-rule="evenodd" clip-rule="evenodd" d="M256.804 260.115C256.529 261.528 255.843 262.194 256.562 263.492C257.173 264.595 258.924 265.317 260.099 265.038L256.804 260.115ZM224.963 209.838L219.166 211.826C220.75 213.38 222.26 215.015 224.007 216.395L224.963 209.838ZM320.587 214.928C317.822 213.534 314.725 213.377 311.694 213.198C312.154 215.687 312.616 218.176 313.078 220.664C315.58 218.752 318.084 216.84 320.587 214.928ZM254.196 407.559C253.644 406.582 249.881 399.033 249.098 399.42C248.683 399.626 248.651 403.829 248.59 404.426C248.375 406.553 248.158 408.678 247.943 410.805C250.169 410.019 252.546 409.367 254.196 407.559ZM227.902 346.528C228.471 348.196 229.041 349.865 229.61 351.534C229.88 352.327 230.039 353.497 230.518 354.197C231.14 355.105 230.671 355.639 231.502 354.645C232.394 353.577 232.661 350.73 233.048 349.422C233.637 347.434 234.225 345.448 234.812 343.462C232.04 343.439 230.36 345.721 227.902 346.528ZM169.65 248.275C166.242 250.605 162.791 252.916 159.826 255.812C162.434 255.649 166.067 257.444 168.524 256.601C169.659 256.843 170.034 256.412 169.65 255.308V253.013V248.275ZM220.19 264.756V278.358C223.372 275.646 226.722 273.127 229.784 270.276C226.586 268.435 223.388 266.596 220.19 264.756ZM333.958 300C332.954 306.056 332.898 312.287 332.623 318.416C332.574 319.503 332.155 321.141 332.88 322.093C333.607 323.048 335.678 323.577 336.731 324.088C339.694 325.524 342.636 327.001 345.59 328.455C341.713 318.97 337.835 309.485 333.958 300ZM409.167 262.76C416.475 259.168 423.783 255.575 431.092 251.982C423.926 248.949 416.76 245.916 409.596 242.882C409.453 249.508 409.309 256.135 409.167 262.76ZM333.942 279.674C335.278 279.769 335.489 274.682 335.71 273.336C336.131 270.783 336.562 268.231 337.005 265.68C337.89 260.582 338.819 255.491 339.799 250.41C341.757 240.249 343.916 230.127 346.309 220.06C343.737 219.596 341.375 219.263 338.863 218.514C336.834 217.91 334.418 218.238 332.607 216.981C332.372 221.698 333.55 226.713 333.986 231.43C334.491 236.888 334.762 242.317 334.718 247.8C334.629 258.425 334.226 269.053 333.942 279.674ZM165.731 423.628C166.997 423.29 165.273 405.929 165.196 403.425C164.976 396.176 164.933 388.922 165.063 381.671C158.239 385.95 151.257 389.89 144.049 393.445C145.901 395.847 147.637 398.439 149.687 400.675C151.8 402.978 154.223 404.866 156.18 407.347C160.121 412.342 162.82 418.013 165.731 423.628ZM329.931 320.921C330.248 315.699 330.542 310.487 331.069 305.281C331.294 303.065 333.435 291.291 330.007 291.568C328.057 291.725 324.636 294.579 322.847 295.58C320.485 296.901 318.12 298.218 315.746 299.519C311.062 302.085 306.347 304.595 301.646 307.131C311.074 311.728 320.503 316.325 329.931 320.921ZM309.575 212.334C305.67 212.042 301.895 211.752 298.043 211.025C295.965 210.633 293.888 210.687 291.8 210.422C290.304 210.233 287.381 209.004 285.987 209.406C284.236 209.911 283.6 218.686 283.36 220.888C282.972 224.435 282.71 228.739 284.295 232.071C287.348 238.494 295.576 233.48 299.579 230.786C303.01 228.476 306.897 226.136 309.941 223.332C312.636 220.847 310.216 215.544 309.575 212.334ZM329.827 282.184C332.769 280.994 332.723 279.499 332.851 276.421C333.006 272.681 333.097 268.937 333.204 265.195C333.394 258.527 333.574 251.855 333.514 245.183C333.457 238.666 333.138 232.159 332.392 225.682C332.128 223.392 332.39 219.48 331.183 217.527C330.082 215.745 326.663 215.726 324.798 215.836C322.695 215.96 320.991 217.957 319.439 219.22C317.72 220.619 314.188 222.589 313.906 224.675C313.59 227.005 314.87 230.329 315.366 232.589C317.18 240.837 319.386 249.003 321.711 257.119C324.122 265.539 326.566 274.044 329.827 282.184ZM255.073 262.443C255.263 260.59 255.952 259.042 255.02 257.277C254.219 255.759 252.915 254.234 251.935 252.797C249.132 248.682 245.987 244.74 242.933 240.808C240.136 237.207 237.27 233.645 234.338 230.153C232.705 228.208 231.021 226.306 229.348 224.396C228.122 222.998 226.961 221.033 225.227 220.301C223.95 228.329 222.894 236.391 222.071 244.478C221.673 248.387 221.33 252.301 221.042 256.22C220.96 257.326 220.102 261.062 220.651 262.092C221.228 263.174 224.753 264.622 225.833 265.285C228.85 267.139 231.195 269.933 234.065 266.885C236.04 264.785 237.631 261.826 239.839 259.995C240.99 259.04 242.073 259.085 243.363 258.518C244.864 257.86 244.911 257.226 246.704 258.122C249.725 259.63 251.56 261.859 255.073 262.443ZM103.848 303.744C103.848 309.302 103.468 313.871 107.235 318.37C110.527 322.301 113.947 323.211 118.578 324.762C121.304 325.675 121.495 324.834 123.704 323.291C125.804 321.827 128.09 320.651 130.161 319.14C134.624 315.883 139.084 312.524 143.422 309.098C144.88 307.946 144.665 308.339 144.444 306.957C144.241 305.697 143.337 304.094 142.843 302.896C141.95 300.729 140.897 298.631 139.843 296.538C138.647 294.163 137.606 291.583 136.12 289.369C135.504 288.45 134.772 287.619 134.053 286.781C132.538 285.016 132.592 285.082 130.781 286.524C126.957 289.569 123.4 292.865 119.096 295.246C114.005 298.064 108.926 300.901 103.848 303.744ZM219.136 260.694C219.689 252.716 220.311 244.781 221.268 236.839C221.759 232.761 222.331 228.694 222.887 224.624C223.114 222.967 223.988 220.186 223.501 218.576C223.023 216.992 220.91 215.484 219.751 214.338C219.44 214.03 218.482 212.737 218.07 212.678C217.629 212.617 215.97 213.832 215.491 214.106C213.799 215.077 212.137 216.097 210.5 217.159C207.415 219.161 204.426 221.308 201.501 223.536C195.368 228.208 189.519 233.235 183.516 238.071C189.016 242.891 195.786 246.634 201.935 250.538C205.571 252.847 209.225 255.13 212.927 257.331C214.804 258.446 216.981 260.151 219.136 260.694ZM143.951 403.368C139.51 406.305 135.269 409.404 130.246 411.289C125.246 413.165 120.304 413.887 115.136 415.002C112.53 415.565 110.081 416.18 107.421 416.574C105.93 416.794 103.623 416.709 102.264 417.338C101.054 417.081 100.622 417.493 100.971 418.576C100.984 418.913 100.997 419.25 101.01 419.586C101.353 424.27 104.363 429.906 106.989 433.713C108.521 435.937 110.474 438.006 112.415 439.874C114.606 441.984 115.869 443.472 118.924 442.589C124.072 441.098 128.616 438.098 133.834 436.775C137.962 435.729 141.39 433.536 145.416 432.401C150.38 431.001 155.293 429.405 160.326 428.236C158.078 423.896 156.067 419.378 153.189 415.403C150.237 411.324 146.982 407.404 143.951 403.368ZM171.19 257.343C180.478 259.192 190.545 260.903 198.857 265.698C202.102 267.569 206.214 270.462 207.164 274.332C208.299 278.958 203.834 281.823 200.105 283.267C195.626 285 190.752 285.664 186.007 286.211C183.495 286.5 180.972 286.658 178.449 286.801C176.406 286.918 172.943 286.469 171.076 287.279C169.907 287.046 169.501 287.52 169.86 288.701C169.838 289.125 169.817 289.55 169.795 289.974L169.602 293.788C169.473 296.328 169.344 298.868 169.214 301.407C168.934 306.94 168.653 312.473 168.373 318.005C173.237 314.991 177.158 310.675 181.913 307.46C184.173 305.931 186.418 304.399 188.669 302.875C189.613 302.237 190.19 301.341 191.119 300.746C192.351 299.957 193.444 299.482 194.599 298.448C199.32 294.226 204.569 290.577 209.576 286.702C211.85 284.941 214.339 283.322 216.503 281.433C218.77 279.454 218.456 277.825 218.401 274.981C218.342 271.969 219.448 268.23 218.935 265.325C219.365 264.34 219.035 263.727 217.944 263.486C217.214 263.02 216.486 262.553 215.757 262.087C214.303 261.157 212.85 260.228 211.396 259.298C205.613 255.6 199.831 251.902 194.048 248.204C191.159 246.357 188.271 244.509 185.381 242.662C184.575 242.147 181.943 239.815 181.038 239.884C180.115 239.954 178.513 241.757 177.821 242.33C176.759 243.21 175.728 244.135 174.58 244.905C174.009 245.301 173.412 245.655 172.79 245.966C171.796 246.062 171.451 246.608 171.753 247.603C170.88 250.403 171.36 254.402 171.19 257.343ZM299.988 389.335C297.885 379.503 295.172 367.86 286.969 361.172C278.649 354.389 266.485 357.01 259.977 364.975C256.718 368.965 254.697 373.682 253.196 378.571C251.655 383.587 249.384 390.124 249.8 395.43C249.982 397.756 251.975 400.256 253.114 402.285C254.289 404.381 255.069 407.386 257.839 406.66C262.134 405.534 266.502 402.949 270.521 401.099C274.586 399.227 278.866 397.688 283.082 395.88C285.88 394.68 288.786 393.767 291.577 392.55C294.224 391.396 297.717 391.118 299.988 389.335ZM424.265 330.773C430.131 332.872 433.181 329.511 437.308 325.727C441.219 322.143 445.455 318.695 449.056 314.799C452.77 310.782 455.706 306.034 458.562 301.394C461.448 296.705 465.35 291.64 467.128 286.417C468.032 283.761 468.417 280.817 468.987 278.071C469.125 277.41 470.045 274.95 469.753 274.394C469.35 273.629 466.788 273.548 466.085 273.437C460.487 272.552 454.556 272.508 448.941 273.299C438.078 274.83 428.992 280.922 425.559 291.575C421.534 304.063 423.468 317.943 424.265 330.773ZM386.228 222.456C386.138 224.618 391.32 225.219 392.664 225.723C395.768 226.887 398.855 228.117 401.869 229.495C408.077 232.332 414.696 234.181 420.64 237.611C433.454 245.007 447.364 250.22 460.309 257.293C462.326 258.396 466.268 261.051 468.572 260.827C469.796 260.707 468.884 261.693 469.678 259.747C469.964 259.046 470.059 258.135 470.219 257.384C470.699 255.136 471.07 252.866 471.608 250.63C472.495 246.948 473.4 243.533 473.774 239.75C473.932 238.147 474.106 236.546 474.125 234.933C474.144 233.299 474.52 229.204 473.783 227.789C473.293 226.851 473.195 227.173 471.973 226.908C471.272 226.756 470.537 226.441 469.862 226.231C468.276 225.737 466.689 225.263 465.026 225.118C463.384 224.975 462.335 224.475 460.795 224.185C459.179 223.88 457.519 224.249 455.872 223.825C454.095 223.365 453.246 222.947 451.389 223.122C449.589 223.292 449.07 222.893 447.307 222.402C445.836 221.993 444.082 222.279 442.548 222.155C440.692 222.003 438.841 221.771 436.983 221.624C428.631 220.963 420.179 221.944 411.806 221.866C407.254 221.824 402.799 222.496 398.253 222.288C394.279 222.107 390.172 222.149 386.228 222.456ZM407.958 266.479C403.895 268.027 400.127 270.541 396.36 272.705C392.016 275.201 387.858 277.854 383.838 280.847C377.078 285.881 369.19 291.916 367.411 300.7C365.586 309.714 373.414 317.1 380.754 320.789C389.124 324.994 398.862 327.169 408.031 328.776C407.05 308.024 407.281 287.237 407.958 266.479ZM286.4 315.335C283.935 316.016 281.848 317.475 279.561 318.555C277.513 319.521 275.531 320.251 273.617 321.495C270.499 323.524 266.885 325.26 263.625 326.829C255.56 330.71 247.73 335.529 239.745 339.83C237.628 340.97 236.935 341.69 236.218 344.037C235.44 346.585 234.706 349.152 233.956 351.709C233.257 354.095 232.141 356.645 232.435 359.163C232.691 361.354 233.824 363.42 234.678 365.418C236.829 370.447 239.161 375.395 241.571 380.304C243.733 384.711 245.706 389.387 248.481 393.437C250.638 382.188 252.573 369.582 260.934 361.01C269.289 352.444 282.618 352.323 290.669 361.165C294.494 365.366 296.822 370.656 298.652 375.971C299.613 378.764 300.258 381.61 300.877 384.494C301.537 387.575 301.375 389.21 304.774 388.276C307.474 387.535 310.336 386.943 312.982 386.097C314.355 385.659 315.694 385.166 315.756 384.082C315.835 382.712 313.991 379.908 313.446 378.619C310.634 371.969 307.821 365.317 305.008 358.667C301.954 351.445 298.899 344.223 295.844 337.002C294.319 333.399 292.794 329.796 291.27 326.193C289.879 322.909 288.72 318.032 286.4 315.335ZM408.187 259.175C408.232 255.891 408.286 252.608 408.329 249.324C408.355 247.367 409.227 243.583 407.523 242.185C406.466 241.318 403.332 240.654 401.995 240.061C399.358 238.891 396.502 238.37 393.85 237.208C383.46 232.657 372.647 228.866 361.949 225.198C359.643 224.407 357.285 223.759 354.963 222.98C353.71 222.56 349.066 220.09 347.907 220.737C346.891 221.302 346.125 228.036 345.8 229.434C345.03 232.744 344.294 236.063 343.586 239.387C340.84 252.293 338.537 265.29 336.395 278.309C342.086 276.148 347.54 272.404 352.916 269.51C358.501 266.503 364.066 263.504 369.689 260.567C371.276 259.737 376.859 255.926 378.166 257.422C380.262 259.822 375.268 262.638 373.957 263.666C368.885 267.644 363.528 271.111 358.104 274.58C352.485 278.177 346.636 281.353 340.987 284.884C338.948 286.158 335.693 287.709 334.892 289.862C333.861 292.63 334.605 295.995 335.544 298.641C337.849 305.141 340.374 311.561 343.043 317.92C344.257 320.811 345.502 323.689 346.771 326.556C348.282 329.971 350.264 330.693 353.555 332.264C367.576 338.96 382.14 345.314 395.607 353.061C393.353 355.659 387.86 351.393 385.636 350.313C381.516 348.312 377.393 346.318 373.277 344.311C365.608 340.573 357.979 336.761 350.267 333.113C355.209 344.354 361.042 355.185 367.509 365.62C365.876 366.173 366.275 366.202 365.25 365.22C364.386 364.393 363.807 362.773 363.222 361.734C362.013 359.589 360.821 357.435 359.603 355.295C357.076 350.854 354.458 346.48 352.15 341.918C350.415 338.487 349.071 332.49 345.504 330.76C341.061 328.604 336.558 326.506 332.114 324.319C332.114 341.41 333.342 358.122 335.145 375.107C335.236 375.964 336.057 378.492 334.402 378.244C333.655 378.132 333.403 373.445 333.272 372.467C332.67 367.98 332.159 363.483 331.742 358.976C330.91 349.983 330.457 340.953 330.399 331.922C329.332 340.703 328.266 349.484 327.199 358.265L325.683 370.747C325.418 372.932 325.152 375.117 324.887 377.303C324.765 378.307 324.842 379.62 324.489 380.577C323.935 382.084 324.121 381.969 322.381 382.656C324.045 371.221 325.581 359.767 326.94 348.293C327.604 342.694 328.226 337.09 328.799 331.482C328.953 329.974 329.104 328.464 329.251 326.956C329.326 326.186 329.989 323.713 329.621 323.074C329.256 322.44 326.839 321.78 326.143 321.457C324.62 320.75 323.096 320.043 321.574 319.332C316.632 317.023 311.694 314.694 306.807 312.272C304.668 311.212 302.426 309.574 300.101 309.009C297.786 308.446 296.103 310.057 294.123 311.082C292.583 311.879 288.953 312.94 287.925 314.294C286.967 315.554 289.941 320.597 290.722 322.456C292.926 327.701 295.13 332.946 297.334 338.191C301.803 348.826 306.272 359.461 310.741 370.096C311.833 372.695 312.926 375.295 314.018 377.895C314.718 379.561 315.887 384.308 317.585 384.494C318.337 384.576 319.571 383.758 320.297 383.523C321.381 383.173 322.382 383.178 323.47 382.994C325.463 382.656 327.533 381.627 329.49 380.906C334.521 379.052 339.736 377.854 344.807 376.122C349.902 374.382 354.913 372.428 359.988 370.687C364.597 369.107 369.247 367.306 373.675 365.249C378.351 363.075 383.146 361.158 387.702 358.748C396.001 354.359 404.209 350.259 411.541 344.876C413.265 343.61 415.101 342.339 416.807 340.984C418.302 339.794 421.155 338.326 422.173 336.762C422.561 336.166 422.894 334.996 422.441 334.289C421.955 333.528 419.801 333.598 418.795 333.462C415.621 333.036 412.449 332.61 409.276 332.184C409.519 334.27 409.765 336.355 409.942 338.45C410.066 339.928 410.94 343.835 409.761 344.994C408.141 343.454 408.662 338.85 408.517 336.798C408.439 335.702 408.718 333.556 408.227 332.584C407.689 331.518 406.203 331.532 404.855 331.241C399.142 330.005 393.48 328.967 387.951 327.009C378.61 323.7 367.445 318.114 365.359 307.34C363.184 296.107 372.741 286.375 380.788 280.111C385.606 276.36 390.732 273.113 396.033 270.098C398.511 268.69 400.987 267.281 403.481 265.902C404.388 265.401 407.366 264.368 407.844 263.492C408.334 262.595 408.083 260.197 408.187 259.175ZM208.353 431.675C207.899 431.896 207.445 432.118 206.993 432.339C212.034 417.974 217.028 403.674 221.243 389.039C223.277 381.975 225.338 374.919 227.442 367.875C228.35 364.837 230.581 360.653 229.961 357.505C229.29 354.099 227.682 350.475 226.438 347.236C218.471 352.243 210.338 356.994 202.239 361.775C194.978 366.062 187.595 369.874 180.283 374.116C176.537 376.289 172.672 377.757 168.761 379.533C165.584 380.976 166.817 385.388 166.863 388.334C167.024 398.739 167.016 409.18 167.647 419.569C167.877 423.354 167.581 427.699 169.99 430.849C173.072 434.877 175.93 438.983 178.74 443.223C179.793 444.811 184.216 453.41 185.865 453.222C186.942 453.1 187.933 449.617 188.472 448.792C189.633 447.012 191.33 445.48 192.875 444.047C199.547 437.857 206.951 433.497 214.645 428.973C222.462 424.377 230.462 420.099 238.428 415.74C240.227 414.755 242.165 414.045 243.953 413.039C244.659 412.641 246.06 412.01 246.505 411.3C247.17 410.236 246.944 407.291 247.083 406.02C247.366 403.423 247.876 400.726 247.904 398.11C247.93 395.526 246.376 393.306 245.25 391.053C240.307 381.161 235.505 371.244 231.204 361.051C227.813 372.887 224.253 384.666 220.927 396.519C219.19 402.708 217.097 408.796 215.058 414.889C214.018 418.002 212.971 421.112 211.931 424.225C211.122 426.65 210.702 430.199 208.353 431.675ZM279.346 208.629C276.726 208.658 274.351 208.273 271.788 207.726C270.848 207.525 270.022 207.441 269.068 207.356C267.988 207.261 267.006 206.676 266.059 206.561C265.343 206.475 264.092 206.776 263.408 207.005C261.823 207.536 261.874 207.268 261.808 209.108C261.704 211.951 261.627 214.795 261.47 217.636C260.856 228.818 259.668 239.891 258.041 250.964C257.712 253.203 256.79 256.139 257.297 258.361C257.754 260.366 259.485 262.506 260.629 264.187C262.981 267.644 268.521 269.352 272.419 270.333C276.528 271.367 280.795 271.747 284.7 272.67C285.782 272.925 287.024 272.475 288.177 272.731C289.243 272.968 290.072 273.553 291.057 273.977C293.472 275.014 296.169 275.205 298.663 276.005C303.607 277.592 308.901 277.497 313.85 279.021C315.115 279.41 316.208 280.392 317.426 280.728C318.539 281.035 319.685 280.673 320.85 280.845C323.318 281.208 325.619 282.052 326.189 284.702C327.698 283.507 327.908 283.821 327.647 281.973C327.48 280.788 326.82 279.345 326.459 278.203C325.538 275.291 324.612 272.38 323.692 269.468C321.872 263.704 320.062 257.936 318.385 252.13C316.883 246.936 315.518 241.703 314.325 236.43C313.719 233.748 313.212 231.055 312.692 228.36C312.54 227.578 312.691 226.334 311.904 225.814C311.192 225.342 309.527 227.036 308.774 227.581C303.515 231.391 291.451 242.66 284.875 236.013C281.334 232.433 281.541 226.14 281.925 221.516C282.161 218.673 282.66 215.867 283.218 213.073C283.358 212.375 284.21 210.135 283.898 209.638C283.561 209.104 280.05 208.785 279.346 208.629ZM464.158 270.825C465.559 270.982 466.958 271.139 468.358 271.297C468.23 270.166 468.345 268.465 467.917 267.411C467.324 265.955 465.875 265.792 464.28 265.189C461.757 264.235 459.185 263.406 456.69 262.379C451.275 260.151 445.886 257.891 440.468 255.663C438.094 254.686 435.304 253.087 432.725 253.885C429.945 254.746 427.201 256.499 424.602 257.783C421.659 259.238 418.717 260.695 415.776 262.153C414.397 262.836 413.017 263.52 411.638 264.203C409.471 265.277 409.183 265.386 409.012 267.838C408.141 280.381 408.205 293.412 408.585 305.972C408.779 312.382 408.562 318.827 409.021 325.225C409.057 325.717 409.02 328.495 409.328 328.873C409.762 329.407 412.816 329.587 413.546 329.721C416.391 330.241 419.257 330.414 422.131 330.671C421.454 316.081 418.966 298.833 426.459 285.488C433.985 272.081 450.072 269.177 464.158 270.825ZM333.325 127.292C334.168 125.37 335.621 123.747 336.863 122.061C337.535 121.149 338.696 120.06 339.126 118.993C339.738 117.475 339.735 117.801 338.821 116.471C337.956 115.215 337.974 115.12 336.637 114.896C335.512 114.707 334.313 115.028 333.164 114.822C332.002 114.613 328.808 113.634 329.54 111.785C329.508 111.866 331.356 110.955 331.5 110.797C331.964 110.291 332.111 109.213 332.341 108.602C333.079 106.643 333.338 105.374 332.515 103.288C331.286 100.173 326.429 99.2506 323.405 100.299C321.893 100.822 321.031 101.932 320.352 103.327C319.92 104.213 319.82 105.493 319.261 106.264C318.42 107.425 318.368 107.296 316.623 107.091C314.401 106.83 312.579 105.976 310.474 105.381C308.181 104.732 306.69 106.052 304.687 107.116C301.07 109.038 297.576 109.705 293.525 110.01C289.013 110.35 284.831 109.262 280.364 108.981C281.523 114.32 284.521 118.655 286.916 123.489C287.337 124.339 288.018 125.208 288.034 126.192C288.051 127.118 286.709 128.379 286.86 129.146C287.183 130.781 290.783 132.09 292.146 132.551C296.004 133.852 300.396 136.398 304.641 135.375C306.968 134.815 308.221 131.139 310.411 130.869C313.35 130.505 311.151 134.289 310.606 135.591C314.776 136.225 320.062 135.687 324.054 134.273C326.055 133.565 327.75 132.507 329.576 131.459C331.85 130.154 332.323 129.795 333.325 127.292ZM260.341 206.748C252.905 206.871 245.361 205.801 237.909 206.785C236.183 207.012 234.479 207.378 232.783 207.768C231.563 208.049 227.69 208.286 226.877 209.192C226.136 210.019 226.131 213.826 225.978 214.899C225.639 217.288 225.729 218.113 227.253 219.96C232.266 226.039 237.487 231.937 242.427 238.083C247.171 243.987 251.066 250.584 255.862 256.404C258.424 248.948 258.577 240 259.281 232.182C259.656 228.013 259.997 223.841 260.317 219.669C260.622 215.694 261.66 210.537 260.341 206.748ZM164.102 285.328C164.962 285.328 166.333 285.597 167.169 285.328C168.318 285.694 168.702 285.262 168.322 284.035C168.34 283.605 168.358 283.175 168.377 282.745C168.497 279.976 168.629 277.207 168.757 274.438C168.875 271.906 168.99 269.374 169.089 266.841C169.158 265.112 170.032 260.827 169.333 259.265C168.864 258.216 167.752 258.454 166.399 258.301C165.112 258.155 163.822 258.02 162.543 257.821C160.919 257.568 159.118 256.986 157.466 257.35C155.806 257.716 154.599 259.249 153.296 260.224C151.234 261.765 149.128 263.25 147.049 264.768C143.27 267.528 139.529 270.338 135.782 273.14C134.235 274.296 133.937 273.895 134.692 275.557C135.159 276.584 136.22 277.747 136.866 278.675C138.153 280.523 139.434 283.324 141.085 284.823C143.486 287.005 150.15 285.62 153.34 285.604C156.978 285.586 160.485 285.642 164.102 285.328ZM173.518 285.147C176.672 284.838 179.86 284.972 182.995 284.547C186.403 284.086 189.787 283.403 193.189 282.89C196.581 282.381 206.899 280.319 205.88 275.256C204.804 269.905 196.905 266.7 192.535 264.901C185.708 262.092 178.582 260.588 171.402 258.999C170.501 263.796 170.631 268.946 170.466 273.807C170.377 276.446 170.298 279.09 170.3 281.732C170.3 282.368 170.081 283.688 170.341 284.279C170.951 285.67 171.661 285.147 173.518 285.147ZM163.143 287.446H143.008C145.988 293.614 148.805 299.897 152.017 305.949C155.217 311.977 159.336 317.657 162.966 323.443C163.885 322.443 165.352 321.358 165.977 320.167C166.669 318.85 166.65 316.912 166.763 315.387C167.057 311.43 167.191 307.437 167.291 303.47C167.378 299.996 167.531 296.546 167.798 293.08C167.856 292.32 168.695 288.372 168.215 287.724C167.787 287.146 164.024 287.452 163.143 287.446ZM246.067 166.337C249.464 166.336 252.864 166.293 256.261 166.35C259.343 166.403 263.359 165.866 266.182 167.453C271.934 170.685 260.436 178.987 258.104 181.077C261.874 182.443 267.758 179.731 271.449 178.488C276.012 176.953 280.666 175.921 285.321 174.718C286.484 174.418 291.476 173.829 292.107 172.938C292.732 172.054 291.331 166.722 291.191 165.597C291.059 164.54 291.17 162.891 290.73 161.897C291 160.702 290.58 160.283 289.471 160.642C289.087 160.64 288.705 160.639 288.322 160.637C285.49 160.66 282.655 160.791 279.825 160.885C270.097 161.209 260.605 161.641 250.959 163.159C246.475 163.865 241.952 164.733 237.491 165.6C233.736 166.329 234.368 166.941 237.875 166.95C240.618 166.957 243.338 166.55 246.067 166.337ZM525.13 94.7996C525.708 94.1359 526.287 93.4716 526.864 92.8073C525.456 92.4051 524.048 92.0024 522.639 91.6003C521.142 91.1729 520.336 91.2707 521.002 89.5975C521.836 87.5015 525.646 87.2613 527.477 87.1823C533.782 86.9097 540.404 88.9157 546.394 90.6828C549.316 91.5452 551.607 92.8798 554.08 94.6546C555.159 95.4297 556.406 96.1575 557.35 97.0886C558.332 98.056 558.741 99.2953 559.7 100.265C561.274 101.856 563.289 102.647 564.061 104.943C564.946 107.578 563.889 110.594 562.578 112.891C561.248 115.223 559.272 116.986 557.668 119.105C556.394 120.786 553.735 125.378 557.891 124.846C560.088 124.564 562.938 120.817 564.52 119.323C566.787 117.182 569.017 114.992 571.418 112.997C573.547 111.229 576 109.416 578.847 109.105C581.848 108.777 583.347 110.698 584.809 113.034C586.189 115.236 586.41 117.387 587.38 119.641C587.848 120.729 588.444 121.335 588.719 122.52C589.142 124.342 589.186 126.331 589.402 128.189C589.741 131.107 590.06 133.402 589.495 136.262C588.965 138.938 588.821 141.78 588.375 144.503C587.87 147.587 587.449 150.684 586.951 153.769C586.53 156.382 584.926 160.104 586.499 162.534C590.28 168.374 594.815 159.777 596.009 156.566C598.108 150.922 599.176 144.752 601.029 138.993C602.021 135.913 602.887 132.803 603.455 129.614C603.926 126.977 603.694 123.764 605.139 121.415C606.263 119.59 608.261 118.205 610.454 118.761C613.198 119.459 614.252 123.425 615.06 125.837C617.191 132.197 616.407 137.924 615.539 144.411C615.138 147.414 614.754 150.421 614.065 153.375C613.599 155.367 611.671 159.4 614.537 160.483C618.6 162.02 622.907 150.364 624.065 147.732C627.096 140.838 628.257 134.001 629.507 126.614C629.794 124.915 630.013 123.181 630.443 121.511C630.816 120.058 631.933 118.59 632.033 117.137C632.133 115.683 631.171 114.668 632.157 113.24C632.978 112.052 634.462 111.98 635.802 111.97C638.95 111.945 641.962 113.328 644.891 114.33C647.617 115.264 651.649 117.311 654.586 116.652C645.367 107.291 636.17 98.0359 625.173 90.7456C620.067 87.3597 614.957 84.106 609.438 81.345C603.847 78.5484 597.44 76.6596 591.453 74.9677C588.197 74.0469 584.958 73.0038 581.743 71.9477C578.88 71.0075 575.999 70.8294 573.196 69.763C567.106 67.4468 560.301 66.5494 553.996 64.9073C551.211 64.1827 548.397 63.5611 545.606 62.8897C542.673 62.1839 538.552 60.9581 535.564 61.0773C533.011 61.1789 532.15 64.1037 530.922 66.1382C529.14 69.0915 527.62 72.1601 526.218 75.3102C523.347 81.7646 520.316 88.4327 518.262 95.1758C517.135 98.8783 516.021 102.585 514.913 106.293C513.955 109.503 511.557 114.134 512.194 117.429C516.917 110.151 521.314 102.594 525.13 94.7996ZM305.279 160.512C302.774 160.626 300.268 160.739 297.763 160.853C300.261 169.063 299.913 177.806 299.913 186.316C311.586 184.94 323.354 184.706 335.098 184.801C332.94 180.639 333.777 175.239 334.391 170.782C334.751 168.174 334.952 165.661 334.899 163.028C334.85 160.56 335.562 158.484 332.946 157.72C330.871 157.115 329.559 158.124 327.582 158.584C325.214 159.135 322.635 159.202 320.224 159.501C315.207 160.125 310.369 160.491 305.279 160.512ZM238.01 176.501C245.533 174.414 253.528 175.184 261.089 173.597C259.369 172.028 256.129 172.957 253.845 173.088C251.249 173.236 248.654 173.344 246.058 173.47C243.525 173.594 236.501 173.402 235.588 176.624C236.394 176.583 237.202 176.542 238.01 176.501ZM513.293 60.1565C503.448 61.0203 493.137 60.8863 483.364 62.6041C472.17 64.5713 460.502 65.8054 449.649 69.2722C439.004 72.6736 428.146 75.0545 417.651 79.0483C407.449 82.9308 397.623 87.0612 388.015 92.2543C383.313 94.7958 378.737 97.49 374.254 100.409C369.877 103.259 365.082 105.595 360.841 108.616C357.066 111.305 353.81 113.771 350.518 117.066C346.999 120.588 343.576 124.206 340.054 127.722C337.115 130.656 338.976 137.829 339.162 141.734C339.42 147.147 339.867 152.484 340.53 157.861C341.162 162.986 341.812 168.493 340.977 173.607C340.627 175.757 339.417 179.47 339.995 181.616C340.456 183.334 343.522 184.594 345.085 185.155C346.998 185.84 348.952 185.551 350.914 186.422C353.106 187.397 354.954 188.612 357.282 189.124C360.151 189.755 363.377 190.286 366.326 190.306C369.052 190.323 371.788 191.206 374.507 191.75C378.93 192.636 383.246 192.912 382.971 198.245C382.653 204.399 380.212 209.68 378.757 215.522C380.724 215.522 382.095 215.647 383.895 214.95C385.996 214.137 388.239 213.92 390.447 213.569C395.327 212.793 400.084 212.544 404.996 212.049C413.994 211.141 423.148 211.25 432.153 211.346C436.712 211.394 441.658 211.746 446.154 212.456C450.767 213.184 455.544 213.639 460.015 215.036C463.786 216.214 467.68 217.017 471.527 218.058C473.261 218.527 475.337 218.908 476.976 219.432C479.349 220.193 480.618 221.815 483.359 221.779C482.588 216.702 480.776 211.993 479.683 206.958C478.542 201.7 476.265 197.049 473.753 192.089C472.632 189.876 471.803 187.528 470.722 185.297C469.52 182.815 467.831 180.759 466.38 178.439C463.411 173.692 460.242 169.125 457.326 164.345C454.78 160.171 451.871 156.17 449.083 152.141C446.019 147.712 441.761 144.369 438.284 140.305C436.816 138.588 435.418 136.993 433.774 135.418C432.259 133.968 430.111 130.757 427.792 130.607C426.459 130.52 424.15 131.27 422.879 131.672C420.526 132.417 418.029 132.903 415.599 133.559C412.94 134.277 410.327 135.211 407.663 135.894C406.597 136.167 405.331 136.037 404.32 136.346C403.264 136.67 402.42 137.383 401.264 137.71C395.562 139.327 389.895 141.163 384.15 142.636C378.237 144.152 372.232 145.443 366.501 147.591C365.408 148.001 364.192 148.97 363.352 148.333C362.726 147.858 362.322 146.516 362.487 145.732C363.037 143.124 367.209 142.182 369.218 141.135C374.6 138.329 379.948 136.35 385.733 134.444C388.583 133.507 391.422 132.505 394.311 131.695C396.726 131.019 399.24 129.874 401.71 129.528C403.906 129.219 405.466 128.354 407.646 127.588C410.858 126.46 414.161 125.533 417.425 124.569C423.003 122.92 428.916 122.228 434.624 121.122C447.847 118.561 461.577 117.279 475.07 117.438C481.873 117.518 488.989 117.319 495.712 118.438C497.333 118.708 500.741 118.656 501.859 120.111C502.459 120.892 502.134 122.054 502.288 122.9C502.548 124.329 503.327 124.994 504.003 126.296C505.438 119.254 507.087 112.361 508.941 105.421C510.616 99.1412 512.167 92.747 514.406 86.5549C516.776 80.0034 519.648 73.0569 523.189 67.0609C523.918 65.8268 525.736 63.8661 525.892 62.4856C526.054 61.0611 524.057 59.9577 522.686 59.7991C519.609 59.4436 516.314 60.0523 513.293 60.1565ZM579.427 160.783C580.429 151.014 583.357 140.796 581.721 130.988C581.029 126.836 580.489 122.872 578.412 119.125C577.362 117.229 576.941 115.837 574.936 116.955C572.907 118.086 571.039 120.88 569.357 122.5C566.265 125.476 563.027 128.541 559.324 130.752C556.408 132.493 550.615 134.142 548.423 130.377C546.334 126.789 549.12 121.781 551.12 118.82C553.409 115.433 557.745 112.296 555.311 108.117C554.264 106.318 552.758 105.847 551.174 104.666C549.803 103.645 548.654 102.321 547.283 101.281C543.31 98.2671 538.952 96.9759 534.364 95.2535C532.246 94.4578 531.968 93.7092 530.744 95.5281C529.416 97.5036 528.688 100.272 527.727 102.457C525.802 106.834 523.75 110.98 521.269 115.061C518.765 119.179 516.546 123.481 514.179 127.681C513.286 129.265 512.446 130.876 511.391 132.363C510.816 133.172 510.104 133.894 509.637 134.78C508.946 136.089 509.254 137.283 508.824 138.588C506.968 144.214 504.262 136.359 503.744 134.523C503.156 132.434 501.738 130.806 500.818 128.857C500.059 127.248 499.541 124.857 497.707 124.099C496.205 123.479 494.269 124.331 492.736 124.414C489.919 124.566 487.082 124.338 484.253 124.515C481.608 124.679 478.969 124.933 476.324 125.095C473.677 125.257 471.033 124.81 468.421 125.088C463.734 125.588 458.942 125.508 454.265 126.201C448.777 127.013 443.345 127.879 437.841 128.555C439.12 130.973 441.77 132.022 443.866 133.748C445.74 135.29 447.223 137.07 449.11 138.538C451.025 140.027 452.162 142.23 453.747 144.02C455.3 145.772 456.737 147.242 458.097 149.203C464.663 158.674 471.434 167.795 476.849 178.031C479.59 183.211 482.208 188.754 484.08 194.312C486.089 200.274 487.074 206.667 488.268 212.832C488.862 215.904 489.173 218.497 488.522 221.587C488.351 222.323 488.173 223.057 487.988 223.79C487.417 224.666 487.628 225.235 488.623 225.496C489.204 226.343 489.998 226.661 490.049 227.82C490.088 228.701 489.598 229.721 488.839 230.218C487.375 231.176 487.375 229.882 485.866 230.169C485.3 230.475 484.734 230.781 484.169 231.086C483.87 230.632 483.563 230.182 483.247 229.74C482.285 228.825 481.52 228.908 480.262 228.685C480.901 236.046 479.882 242.617 478.262 249.797C477.483 253.249 476.147 256.629 475.473 260.087C474.722 263.951 476.365 265.711 478.907 268.288C478.262 268.625 477.132 268.99 476.599 269.493C475.752 270.296 475.969 270.394 475.969 271.65C475.971 273.948 475.53 276.214 475.168 278.474C474.5 282.661 473.89 286.992 472.448 291.001C469.83 298.281 465.599 305.841 461.288 312.253C458.875 315.842 456.457 319.918 453.433 323.015C450.398 326.122 447.39 329.257 444.362 332.373C438.403 338.508 431.891 342.746 424.752 347.339C421.925 349.158 418.947 351.151 416.516 353.416C414.045 355.717 410.759 357.328 407.805 359C406.488 359.746 405.55 360.818 404.127 361.43C402.791 362.004 401.857 362.192 400.736 362.945C397.955 364.815 394.952 366.414 391.889 367.824C388.155 369.544 384.479 371.545 380.644 373.013C378.896 373.682 377.252 374.411 375.559 375.193C373.727 376.039 371.751 376.595 369.872 377.497C368.284 378.259 366.677 378.702 365.061 379.325C363.741 379.834 362.705 380.657 361.359 381.19C358.563 382.294 356.019 382.888 353.304 384.19C349.695 385.919 345.419 386.726 341.618 387.97C337.374 389.361 332.972 390.744 328.617 391.729C326.764 392.149 325.185 392.697 323.395 393.332C322.229 393.746 320.892 393.973 319.6 394.366C316.03 395.454 312.463 396.503 308.874 397.429C301.863 399.237 294.7 401.408 287.901 403.863C284.335 405.15 280.719 406.699 277.299 408.338C273.433 410.19 269.267 411.259 265.386 413.093C257.89 416.634 250.419 420.279 243.009 423.997C239.118 425.95 235.282 427.962 231.483 430.086C230.104 430.856 228.597 431.174 227.228 431.93C225.437 432.919 223.967 434.37 222.132 435.349C215.061 439.126 207.845 442.683 201.35 447.461C197.952 449.962 194.3 452.523 191.363 455.567C190.393 456.572 188.714 458.127 188.538 459.584C188.28 461.741 188.522 459.757 189.269 461.087C190.303 461.212 190.536 461.61 189.972 462.278C189.712 462.592 189.379 462.751 188.973 462.758C187.667 463.022 185.224 461.638 184.174 461.06C182.355 460.057 181.39 458.79 180.221 457.107C177.685 453.456 175.209 449.773 172.596 446.173C170.247 442.936 167.947 439.372 165.273 436.4C163.46 434.385 163.324 435.265 161.308 436.401C159.807 437.246 158.065 437.607 156.51 438.402C150.586 441.437 144.074 443.678 137.998 445.793C136.614 446.275 135.877 447.039 134.661 447.704C133.112 448.552 131.15 448.966 129.494 449.568C124.931 451.227 120.39 452.949 115.86 454.695C112.362 456.044 109.001 457.106 106.262 459.595C105.172 460.586 103.853 461.295 102.728 462.297C101.418 463.462 99.6453 465.358 97.9954 466.017L96.9905 466.802C96.3106 466.329 95.6301 465.857 94.9482 465.386C94.2722 464.918 93.5956 464.452 92.9209 463.982C91.2263 462.805 89.5441 461.61 87.8599 460.417C84.0403 457.71 80.196 455.029 76.6431 451.973C70.3318 446.546 63.7829 441.41 57.1835 436.327C50.257 430.992 43.5041 425.41 36.3401 420.395C29.8469 415.85 22.7624 412.012 16.4667 407.215C13.2978 404.801 10.1366 402.37 6.90102 400.032C6.7249 399.905 4.09212 398.289 4.0657 398.11C4.02089 397.78 4.88726 396.918 5.14303 396.641C6.35387 395.324 7.69552 394.152 8.90183 392.822C14.5242 386.622 21.865 386.838 29.6241 386.545C33.1427 386.413 36.9585 388.035 40.3003 389.14C44.3867 390.491 48.3287 392.473 52.276 394.185C60.4106 397.714 68.8063 400.728 77.0232 403.996C80.2543 405.281 83.473 405.908 86.7579 406.791C90.0906 407.688 93.5237 406.833 97.0883 406.897C98.9382 406.93 100.687 407.038 102.55 406.933C103.656 406.871 104.93 406.661 106.023 406.68C106.908 406.696 107.827 407.061 108.641 406.968C112.207 406.564 115.974 405.998 119.651 405.534C123.303 405.074 127.071 404.845 130.674 404.125C132.488 403.762 134.279 403.249 136.024 402.634C137.54 402.1 140.294 401.493 141.537 400.411C142.65 399.443 142.163 399.43 141.543 397.851C141.298 397.227 141.044 396.28 140.68 395.678C139.696 394.053 138.746 393.542 139.318 391.508C140.326 387.924 143.763 385.636 146.704 383.87C153.331 379.894 159.392 374.794 166.369 371.421C180.747 364.472 193.85 355.445 207.871 347.814C223.283 339.425 237.862 329.582 253.489 321.548C268.034 314.069 282.513 306.547 297.179 299.304C304.341 295.769 312.441 292.533 318.938 287.898C315.338 287.451 311.728 286.874 308.115 286.554C306.439 286.406 304.744 286.543 303.078 286.277C301.214 285.979 299.452 285.225 297.593 284.912C294.394 284.372 291.519 283.276 288.318 282.872C284.886 282.438 281.525 281.429 278.077 281.147C270.865 280.556 264.355 277.896 258.032 274.543C256.467 273.713 255.181 274.188 253.682 273.623C252.855 273.313 251.978 272.073 251.05 271.406C248.494 269.571 246.301 267.405 243.872 265.4C238.766 276.86 228.739 284.654 219.171 292.341C214.324 296.234 209.064 299.534 204.167 303.354C200.371 306.315 196.924 308.966 192.872 311.321C188.981 313.581 185.326 316.634 181.616 319.349C179.102 321.189 176.155 322.578 173.482 324.176C171.297 325.481 167.032 327.428 166.436 329.796C165.948 331.731 166.9 334.033 163.947 333.144C161.303 332.348 159.387 329.413 157.847 327.345C153.865 321.996 150.15 316.465 146.453 310.918C144.467 314.794 141.041 317.585 137.875 320.459C135.951 322.205 133.954 323.825 131.876 325.384C130.869 326.14 129.85 326.882 128.84 327.636C128.443 327.934 127.541 328.392 127.284 328.811C126.681 329.793 127.047 329.348 127.141 330.535C127.287 332.394 127.908 333.857 126.856 335.638C125.868 337.311 123.713 338.025 122.203 339.167C118.611 341.886 114.833 344.776 110.848 346.899C109.943 347.381 109.088 347.798 108.246 348.388C106.839 349.372 107.096 349.728 105.679 348.786C103.462 347.31 101.548 344.86 99.5475 343.081C95.3568 339.353 91.1195 335.672 86.8278 332.061C78.6491 325.177 70.2289 318.637 62.1518 311.631C54.4762 304.973 46.2477 299.242 38.3234 292.913C36.1497 291.177 34.0026 289.405 31.8574 287.633C29.9472 286.057 26.8476 284.319 25.4347 282.301C23.3828 279.371 31.4093 275.366 33.831 274.769C38.0068 273.742 43.4064 274.33 47.5886 275.172C51.9788 276.056 56.4492 279.013 60.5486 280.854C65.1692 282.929 69.8753 284.724 74.5303 286.683C76.6062 287.556 78.8071 288.254 80.7341 289.431C82.7789 290.68 84.6042 292.104 86.7786 293.152C89.2844 294.357 91.8881 295.483 94.5235 296.375C95.7175 296.779 97.0028 297.185 98.2577 297.348C100.034 297.579 99.7936 296.761 101.269 296.304C102.523 295.915 102.821 296.941 103.949 297.227C105.011 297.496 105.805 297.224 106.724 296.653C108.775 295.38 110.599 293.626 112.65 292.301C114.552 291.071 116.65 289.922 118.433 288.53C119.228 287.91 119.816 287.06 120.599 286.43C121.855 285.42 122.353 285.82 123.819 285.125C125.017 284.556 126.104 283.497 127.245 282.795C127.952 282.359 129.669 281.808 130.126 281.103C131.325 279.252 129.278 277.966 127.445 278.512C127.17 276.913 125.761 273.118 126.369 271.619C126.908 270.293 128.322 270.541 129.512 269.839C133.982 267.199 137.281 262.404 141.463 259.303C145.406 256.379 148.885 252.889 152.79 249.912C156.136 247.362 159.793 244.871 162.839 242.121C166.441 238.869 171.053 236.339 174.969 233.436C179.015 230.438 182.774 227.102 186.776 224.07C190.627 221.153 194.409 218.106 198.366 215.329C201.922 212.832 205.65 210.553 209.132 208.023C211.04 206.637 213.125 205.42 215.303 204.51C217.468 203.605 219.362 202.543 221.476 201.569C225.678 199.632 231.149 198.294 235.718 197.739C240.742 197.129 245.786 196.582 250.857 196.577C253.559 196.575 256.182 197.089 258.867 197.253C261.335 197.402 264.002 198.026 266.452 197.944C267.561 197.907 268.525 197.437 269.599 197.589C270.496 197.715 271.276 198.256 272.239 198.351C274.381 198.562 276.535 198.351 278.702 198.629C283.679 199.264 288.663 200.171 293.651 200.676C298.965 201.214 304.233 201.316 309.52 202.222C314.685 203.107 319.884 204.025 325.02 205.049C335.935 207.224 346.964 209.349 357.706 212.579C360.217 213.334 362.743 214.052 365.157 215.088C366.328 215.59 367.454 216.198 368.676 216.574C370.425 217.111 370.77 217.315 371.671 215.847C373.222 213.321 374.077 209.979 375.203 207.23C376.316 204.51 377.668 201.768 378.314 198.928C376.437 198.631 374.069 199.208 372.132 199.274C369.764 199.356 367.422 199.305 365.057 199.29C360.289 199.262 356.561 197.854 352.05 196.375C348.248 195.129 343.186 194.414 340.285 191.56C338.73 190.03 338.213 189.76 335.875 190.035C333.517 190.311 331.188 190.788 328.807 190.867C319.834 191.165 310.901 192.73 301.887 193.04C299.449 193.123 293.35 194.279 293.75 190.144C293.832 189.285 294.49 188.54 294.618 187.657C294.756 186.709 294.519 185.748 294.37 184.822C294.018 182.631 293.649 180.442 293.298 178.251C285.078 180.889 276.755 183.026 268.379 185.116C264.906 185.982 259.325 187.974 255.736 186.882C252.266 185.826 254.276 180.937 255.357 178.597C248.463 180.171 241.11 182.744 234.079 183.334C231.941 183.514 229.859 183.988 229.361 181.402C228.965 179.342 230.453 176.822 231.212 175.013C225.817 174.531 220.23 174.577 221.245 167.661C222.176 161.316 227.446 160.053 233.058 158.894C239.985 157.462 247.059 156.985 254.031 155.827C260.096 154.819 266.715 153.695 272.909 154.204C276.189 154.472 279.488 154.534 282.766 154.837C284.313 154.981 285.801 155.22 287.298 155.642C288.679 156.031 290.61 157.236 292.026 157.257C294.163 157.291 296.738 154.402 299.036 153.734C301.883 152.907 304.95 152.756 307.891 152.554C311.225 152.325 314.563 152.198 317.894 151.928C318.653 151.866 321.524 152.054 322.123 151.609C322.996 150.961 322.415 147.637 322.355 146.271C322.298 145.008 322.541 142.642 321.666 142.146C320.843 141.681 318.446 142.319 317.637 142.449C314.282 142.986 311.094 142.925 307.752 142.788C306.208 142.725 304.725 143.136 303.197 142.934C301.557 142.717 299.905 142.165 298.272 141.858C294.733 141.193 291.509 140.366 288.46 138.383C285.783 136.643 282.616 135.465 281.12 132.418C280.024 130.187 279.579 125.881 282.8 125.246C280.606 122.082 279.092 118.527 277.93 114.871C277.718 114.207 277.579 113.209 277.263 112.631C276.15 110.586 277.183 112.4 275.594 111.582C274.024 110.774 272.892 110.135 271.665 108.731C269.709 106.491 268.885 103.735 268.638 100.816C268.302 96.8529 267.676 92.3838 268.254 88.4404C269.256 81.6098 274.248 76.4777 279.321 72.3466C282.075 70.1036 285.7 69.2683 288.93 67.9072C292.048 66.5928 295.531 65.2149 298.816 64.9067C301.781 64.6282 304.671 63.6602 307.639 63.2698C311.719 62.7323 315.802 62.9331 319.902 62.7699C321.789 62.6948 323.671 62.4286 325.549 62.226C326.61 62.1114 328.404 62.2337 329.375 61.8135C330.965 61.1246 330.106 62.5711 330.674 60.4641C331.754 56.456 332.636 52.6972 334.272 48.8024C335.796 45.1738 337.648 41.7044 340.094 38.6022C342.389 35.6923 345.365 33.5639 348.069 31.0781C350.072 29.2366 352.344 27.5731 354.629 26.0839C355.936 25.2324 357.391 24.772 358.668 24.0203C360.253 23.0878 361.651 22.3808 363.435 21.8096C367.261 20.5846 371.059 19.2837 375.123 19.3478C379.505 19.4164 383.898 18.3966 388.164 19.6897C396.085 22.0913 399.966 30.676 399.833 38.5595C402.542 37.8835 404.91 36.582 407.78 36.4706C410.423 36.3683 413.564 36.5975 416.16 37.0883C421.199 38.0408 426.382 40.8419 429.386 45.087C432.252 49.1359 432.681 54.5115 430.919 59.105C430.076 61.3039 428.739 63.26 427.315 65.1178C426.271 66.4801 423.941 67.9882 423.831 69.8135C443.335 63.9179 462.918 59.7622 483.094 57.0724C493.321 55.7094 503.566 56.3919 513.803 55.6129C518.177 55.2801 522.929 55.7457 527.45 55.7632C529.359 55.7709 530.845 55.5055 532.228 54.27C533.63 53.0203 534.749 51.4896 536.382 53.2936C536.799 53.7539 536.887 54.8677 537.447 55.2141C538.127 55.6337 540.104 55.3455 540.917 55.3954C543.761 55.5689 546.535 56.0513 549.327 56.6069C554.448 57.6267 559.537 58.6575 564.598 59.9519C574.234 62.417 583.743 64.8011 593.24 67.7272C602.931 70.7129 612.724 74.3966 621.659 79.2296C625.987 81.5704 630.309 84.4926 634.288 87.3882C636.138 88.7351 637.797 90.192 639.405 91.8159C641.125 93.5519 643.229 94.7232 644.933 96.4722C648.638 100.276 652.329 104.312 655.691 108.433C657.446 110.585 659.056 112.854 660.619 115.148C661.716 116.757 664.606 119.703 663.94 121.781C663.586 122.891 662.346 123.668 661.211 123.396C660.832 123.305 660.516 122.813 660.193 122.766C659.097 122.611 660.094 122.225 658.815 122.744C656.273 123.775 655.462 125.844 652.232 125.373C646.742 124.572 641.578 121.98 636.585 119.719C635.159 125.171 634.957 130.823 633.709 136.341C632.491 141.723 630.462 146.857 628.011 151.794C625.861 156.126 623.101 160.743 619.295 163.839C616.392 166.201 609.226 169.135 607.093 164.106C606.187 161.97 607.534 158.651 607.916 156.452C608.428 153.502 608.993 150.544 609.301 147.564C609.551 145.143 609.677 142.708 609.91 140.284C610.112 138.199 610.668 133.723 609.496 131.881C608.789 130.771 608.728 131.861 608.317 132.968C607.818 134.312 607.404 135.645 607.039 137.028C606.263 139.969 605.564 142.929 604.83 145.88C603.52 151.152 602.077 156.309 599.345 161.049C596.92 165.259 593.506 169.877 588.318 170.566C585.889 170.889 582.723 169.778 580.869 168.142C578.789 166.306 579.411 163.278 579.427 160.783Z" fill="#79716B"/>
<path fill-rule="evenodd" clip-rule="evenodd" d="M460.967 376.067C463.818 375.505 466.218 373.229 468.546 371.52C471.516 369.34 474.333 366.964 477.216 364.674C482.65 360.358 487.58 355.625 492.268 350.477C501.517 340.322 508.481 327.249 511.646 313.893C513.248 307.135 515.228 299.216 514.319 292.232C514.003 289.806 513.522 289.361 511.143 289.085C510.068 288.961 507.342 288.652 506.374 289.074C503.867 290.17 502.514 294.831 501.771 297.174C499.574 304.091 498.282 311.254 496.297 318.228C494.352 325.063 491.217 331.998 488.116 338.39C481.218 352.612 471.63 364.51 460.967 376.067ZM517.523 297.548C515.818 316.915 510.441 335.366 498.385 350.962C492.654 358.375 485.915 364.825 478.61 370.684C471.068 376.734 463.365 382.431 454.807 386.943C452.53 388.144 450.249 389.341 447.944 390.486C446.665 391.121 443.439 393.46 441.965 393.09C440.783 392.793 440.475 391.88 440.291 390.691C439.878 388.022 441.611 386.69 443.364 384.977C450.405 378.093 457.469 371.184 464.053 363.861C477.056 349.398 486.823 332.079 492.253 313.392C493.925 307.638 495.418 301.82 497.223 296.107C498.323 292.627 499.882 286.431 503.536 284.696C505.496 283.765 507.779 284.671 509.84 284.113C511.773 283.59 513.053 282.523 514.701 284.313C517.591 287.453 517.72 293.613 517.523 297.548Z" fill="#79716B"/>
<path fill-rule="evenodd" clip-rule="evenodd" d="M2.40236 409.29C0.959057 409.802 0.898839 410.309 0.23773 408.824C-0.0950903 408.076 -0.00508637 407.051 0.0732624 406.273C0.261041 404.411 1.24137 402.69 2.04687 401.039C9.62793 407.293 17.4997 412.929 25.6286 418.454C34.322 424.362 42.6225 430.932 50.8446 437.477C58.2074 443.339 65.659 449.027 72.9448 454.962C76.4588 457.825 80.4649 460.043 83.8055 462.994C86.5049 465.378 90.9818 466.446 93.2831 469.25C89.6363 471.43 84.7677 473.185 80.7265 471.299C76.2684 469.219 72.8489 466.508 68.8816 463.69C66.8374 462.237 64.7117 460.919 62.6351 459.514C60.8098 458.278 59.5206 456.474 57.6726 455.315C53.7888 452.878 49.8047 450.194 46.1197 447.411C42.3343 444.554 38.1501 442.28 34.4982 439.243C30.7543 436.13 26.5636 434.067 22.6545 431.232C14.3703 425.225 7.07544 418.468 2.40236 409.29Z" fill="#79716B"/>
<path fill-rule="evenodd" clip-rule="evenodd" d="M225.912 90.3103C225.809 90.8633 225.706 91.4163 225.603 91.9699C225.666 91.9841 230.623 82.4074 231.444 81.251C234.23 77.3303 237.854 74.0682 241.349 70.7937C248.751 63.8576 257.415 58.2592 264.669 51.1994C267.056 48.8768 271.332 45.3575 270.388 41.4304C269.45 37.5272 261.529 38.3204 258.817 39.4497C254.565 41.2206 251.111 44.9244 247.942 48.1515C244.486 51.6721 241.001 55.1531 238.072 59.1372C234.913 63.4334 231.915 68.0865 229.979 73.0723C227.811 78.6577 226.964 84.438 225.912 90.3103ZM227.54 107.446C224.176 108.483 228.393 109.184 227.075 110.981C225.63 112.952 223.201 106.879 222.837 105.733C220.696 98.9578 221.654 90.7273 222.823 83.8488C223.414 80.3788 223.795 76.8518 224.592 73.4194C225.369 70.0724 227.06 66.8918 228.624 63.8472C231.753 57.7554 235.897 52.08 240.6 47.1129C245.317 42.1297 250.575 37.1439 256.799 34.076C261.943 31.5423 270.095 33.3002 272.502 38.8345C274.962 44.4899 271.635 50.6503 267.701 54.6267C262.569 59.8126 256.977 64.9635 251.212 69.4352C248.25 71.7339 245.766 74.5136 242.888 76.912C239.825 79.4652 237.175 82.0332 234.91 85.3348C232.716 88.5342 230.458 91.731 229.032 95.3628C227.471 99.3398 227.54 103.239 227.54 107.446Z" fill="#79716B"/>
<path fill-rule="evenodd" clip-rule="evenodd" d="M92.9893 351.327C85.2594 346.349 77.5035 341.979 70.772 335.632C64.1259 329.364 58.319 322.297 50.9219 316.859C47.2311 314.146 43.4218 311.599 39.7963 308.798C36.3555 306.138 32.4005 303.86 29.2905 300.827C25.1451 296.783 17.3841 289.269 22.68 283.239C29.2536 291.057 38.2727 297.219 46.4955 303.155C55.1657 309.413 63.1236 316.713 71.3476 323.532C79.2699 330.099 87.1656 336.728 94.8963 343.47C96.9262 345.241 98.8843 347.101 100.938 348.843C101.189 349.057 103.318 350.405 103.318 350.764C103.318 351.625 101.669 352.163 101.081 352.402C100.153 352.78 97.643 353.721 96.5908 353.403C96.0391 353.236 96.0294 352.786 95.6318 352.519C95.4033 352.088 95.1365 351.682 94.8334 351.3C94.2183 351.31 93.6038 351.319 92.9893 351.327Z" fill="#79716B"/>
<path fill-rule="evenodd" clip-rule="evenodd" d="M548.048 264.543C542.538 264.401 534.15 264.385 534.459 271.909C534.612 275.635 536.632 278.371 538.292 281.558C540.034 284.907 541.326 288.367 541.837 292.121C543.906 307.316 538.356 322.161 533.336 336.208C544.117 327.506 551.904 315.398 555.992 302.126C557.974 295.69 558.745 287.417 558.105 280.715C557.784 277.362 556.548 274.356 555.058 271.368C554.31 269.867 553.563 268.153 552.37 266.938C551.175 265.721 549.519 265.316 548.048 264.543ZM528.826 344.912C525.266 339.057 530.871 330.438 532.704 324.729C534.895 317.905 536.916 310.799 537.853 303.681C538.834 296.225 537.567 290.427 534.111 283.842C531.021 277.954 529.186 270.112 532.622 263.883C534.006 261.376 536.049 261.067 538.478 260.067C541.459 258.84 542.28 256.764 545.938 257.093C552.466 257.679 555.486 263.87 557.914 269.144C563.576 281.441 562.037 297.309 557.208 309.657C554.429 316.761 551.259 324.138 546.541 330.188C544.227 333.154 541.508 335.725 538.686 338.2C535.633 340.876 532.898 344.102 528.826 344.912Z" fill="#79716B"/>
<path fill-rule="evenodd" clip-rule="evenodd" d="M156.07 131.427C147.464 133.157 139.611 137.035 138.233 146.707C136.98 155.496 142.967 163.627 150.319 167.742C158.27 172.193 168.233 172.932 176.156 167.999C184.497 162.806 186.389 152.399 181.312 144.235C175.648 135.124 166.159 132.435 156.07 131.427ZM161.6 127.211C171.848 128.712 181.36 136.005 184.812 145.827C188.371 155.952 185.101 167.084 175.68 172.632C156.64 183.845 131.192 165.159 135.787 143.681C136.954 138.227 140.267 134.004 144.769 130.811C149.738 127.286 155.748 127.19 161.6 127.211Z" fill="#79716B"/>
<path fill-rule="evenodd" clip-rule="evenodd" d="M525.943 24.3885C513.595 18.8057 501.247 13.2228 488.9 7.63998C488.393 13.2371 487.887 18.8335 487.38 24.4306C487.243 25.9451 486.682 28.0055 486.921 29.4999C487.177 31.0948 486.631 30.9245 488.71 30.6978C491.369 30.4071 494.036 29.7505 496.668 29.2811C501.399 28.4367 506.43 28.1959 511.06 26.9539C513.423 26.32 515.686 26.2404 518.084 25.857C520.718 25.4362 523.282 24.6566 525.943 24.3885ZM484.174 35.2084C484.174 28.9036 484.875 22.6836 485.452 16.4079C485.971 10.7616 486.171 5.37952 488.014 0C489.736 3.12683 494.503 4.37653 497.453 5.98559C501.518 8.20267 505.848 9.83504 510.009 11.8546C514.096 13.838 518.033 16.1152 522.124 18.094C524.199 19.0977 526.305 20.034 528.376 21.0454C529.672 21.6787 532.747 22.6978 533.553 23.8737C536.001 27.4428 527.622 27.7879 526.004 28.1026C521.154 29.0486 516.247 29.5815 511.405 30.5541C506.891 31.4619 502.369 32.3043 497.839 33.1273C493.356 33.9419 488.737 35.2084 484.174 35.2084Z" fill="#79716B"/>
<path fill-rule="evenodd" clip-rule="evenodd" d="M103.45 191.29C108.312 190.785 113.153 190.057 118.009 189.576C122.608 189.121 126.676 188.637 130.877 186.53C125.139 184.8 119.389 183.162 113.602 181.598C110.733 180.823 107.869 180.003 104.986 179.279C102.756 178.718 100.812 178.396 99.9548 175.962C98.957 173.128 101.732 173.558 103.461 174.278C105.847 175.27 108.445 175.887 110.917 176.713C116.435 178.555 121.987 180.25 127.557 181.925C129.288 182.445 139.321 184.371 135.706 187.718C134.159 189.151 130.707 189.938 128.816 190.967C126.389 192.286 123.748 192.812 121.049 193.337C115.425 194.431 109.587 194.852 103.893 195.801C100.985 196.286 98.0777 196.771 95.1704 197.256C93.4668 197.539 92.8108 197.512 92.366 195.612C92.0423 194.231 92.4644 192.85 92.7752 191.513C93.5639 188.116 94.4413 184.736 95.3096 181.358C95.6398 180.07 96.2245 174.405 97.3739 173.786C99.9814 172.38 97.9696 180.222 97.776 181.182C97.0443 184.804 96.1753 188.401 95.7842 192.077C98.3451 191.845 100.899 191.605 103.45 191.29Z" fill="#79716B"/>
<path fill-rule="evenodd" clip-rule="evenodd" d="M172.383 220.128C173.348 222.55 171.746 223.092 169.802 223.932C167.28 225.02 164.8 226.169 162.233 227.149C156.832 229.21 151.392 231.124 146.12 233.509C136.065 238.056 125.874 242.423 115.975 247.292C113.515 248.503 111.053 249.708 108.571 250.874C106.004 252.079 103.061 254.108 100.315 254.797C97.9196 255.398 97.6697 253.692 99.089 252.122C100.919 250.095 103.748 248.583 106.046 247.175C115.503 241.377 125.825 236.658 136.155 232.67C148.095 228.06 160.066 223.637 172.383 220.128Z" fill="#79716B"/>
<path fill-rule="evenodd" clip-rule="evenodd" d="M198.636 82.7084C198.29 75.3436 199.275 67.9588 198.688 60.6134C188.589 69.5659 193.565 83.4013 199.374 93.1152L198.636 82.7084ZM203.007 82.2875C203.071 85.8851 203.275 89.4807 202.926 93.0602C202.559 96.8177 204.321 98.7531 206.619 101.521C204.668 103.501 200.191 98.8839 198.955 97.5228C196.409 94.7204 194.515 90.9972 192.83 87.6321C189.24 80.4635 186.768 72.7886 189.641 64.9181C190.706 62.001 192.009 58.035 194.829 56.3366C197.925 54.4718 200.294 57.102 201.578 59.8073C204.715 66.408 202.324 75.2025 203.007 82.2875Z" fill="#79716B"/>
<path fill-rule="evenodd" clip-rule="evenodd" d="M309.99 448.377C314.646 448.746 319.233 449.109 323.89 449.404C323.086 443.021 322.282 436.637 321.478 430.254C318.784 430.878 316.09 431.501 313.395 432.124C312.122 432.419 310.168 432.497 309.041 433.132C308.619 433.23 308.197 433.327 307.776 433.425C307.765 434.253 307.756 435.082 307.748 435.911C307.716 438.362 307.646 440.811 307.544 443.261C307.501 444.287 307.143 445.79 307.389 446.807C306.953 447.835 307.23 448.272 308.222 448.118C308.812 448.204 309.4 448.291 309.99 448.377ZM306.784 452.992C303.134 451.174 304.132 445.621 304.137 442.086C304.142 439.837 304.301 437.604 304.359 435.358C304.4 433.814 304.047 431.904 304.578 430.413C305.523 427.76 310.146 427.832 312.523 428.018C314.285 428.155 315.76 428.066 317.567 427.95C318.457 427.893 319.45 428.063 320.325 427.8C320.514 427.743 322.294 426.502 322.215 426.499C325.408 426.621 325.451 434.277 325.658 436.219C326.17 441.007 326.634 445.804 327.051 450.602C327.162 451.872 327.634 453.308 326.427 454.032C325.339 454.686 322.456 454.04 321.253 454.003C316.403 453.857 311.58 453.1 306.784 452.992Z" fill="#79716B"/>
<path fill-rule="evenodd" clip-rule="evenodd" d="M534.632 168.53C536.742 170.429 535.728 172.389 535.037 174.761C534.621 176.185 532.338 180.86 532.968 182.192C533.697 183.732 537.117 184.111 538.579 184.597C541.127 185.444 543.686 186.295 546.096 187.489C547.166 188.019 551.025 189.238 551.748 190.227C552.162 190.794 552.313 191.238 552.002 191.969C551.455 193.253 550.674 192.573 549.341 192.298C543.249 191.04 537.208 189.43 531.558 186.775C529.982 190.432 528.649 194.166 527.316 197.917C526.926 199.017 526.553 201.515 525.069 201.693C523.26 201.909 523.235 199.486 523.356 198.179C523.531 196.27 524.52 194.235 525.117 192.428C525.61 190.936 527.338 187.83 527.125 186.293C526.979 185.235 526.334 185.308 525.185 184.893C524.099 184.5 523.013 184.11 521.927 183.713C520.187 183.076 518.455 182.438 516.762 181.683C515.832 181.269 513.888 180.784 513.215 179.924C512.825 179.426 512.39 177.629 512.882 177.132C514.034 175.967 521.696 179.102 523.271 179.53C524.316 179.814 525.366 180.031 526.38 180.404C526.764 180.545 527.219 181.12 527.634 181.142C529.396 181.231 529.536 179.876 530.083 178.422C531.353 175.044 532.731 171.598 534.632 168.53Z" fill="#79716B"/>
<path fill-rule="evenodd" clip-rule="evenodd" d="M95.3726 235.739C94.4331 233.436 104.405 230.653 106.257 229.877C110.775 227.986 115.616 226.842 120.294 225.397C124.895 223.977 129.475 222.447 134 220.803C135.399 220.294 145.476 215.388 146.003 216.106C147.749 218.479 126.604 225.936 124.544 226.678C114.976 230.123 105.097 232.768 95.3726 235.739Z" fill="#79716B"/>
<path fill-rule="evenodd" clip-rule="evenodd" d="M524.282 55.6233C521.697 55.6492 517.969 56.3822 515.597 55.3332C518.492 55.4297 521.387 55.5268 524.282 55.6233Z" fill="#79716B"/>
<path fill-rule="evenodd" clip-rule="evenodd" d="M161.6 127.211L155.852 127.19C157.77 126.745 159.687 126.477 161.6 127.211Z" fill="#79716B"/>
<path fill-rule="evenodd" clip-rule="evenodd" d="M460.927 125.675C462.282 125.668 463.638 125.661 464.984 125.653C463.626 125.661 462.277 125.668 460.927 125.675Z" fill="#79716B"/>
<path fill-rule="evenodd" clip-rule="evenodd" d="M579.427 160.783C579.417 162.233 579.408 163.683 579.396 165.127C579.405 163.675 579.416 162.229 579.427 160.783Z" fill="#79716B"/>
<path fill-rule="evenodd" clip-rule="evenodd" d="M312.523 428.017C311.083 428.122 309.644 428.225 308.206 428.329C309.646 428.225 311.084 428.121 312.523 428.017Z" fill="#79716B"/>
<path fill-rule="evenodd" clip-rule="evenodd" d="M320.634 151.705C319.172 151.823 317.71 151.943 316.25 152.061C317.711 151.942 319.173 151.823 320.634 151.705Z" fill="#79716B"/>
<path fill-rule="evenodd" clip-rule="evenodd" d="M471.91 125.198C472.944 125.196 473.978 125.194 475.005 125.192C473.967 125.195 472.938 125.197 471.91 125.198Z" fill="#79716B"/>
<path fill-rule="evenodd" clip-rule="evenodd" d="M263.761 154.534C262.476 154.65 261.19 154.766 259.905 154.881C261.19 154.766 262.476 154.65 263.761 154.534Z" fill="#79716B"/>
<path fill-rule="evenodd" clip-rule="evenodd" d="M320.545 62.7659C319.259 62.7736 317.973 62.7814 316.688 62.7892C317.97 62.1093 319.257 62.2848 320.545 62.7659Z" fill="#79716B"/>
<path fill-rule="evenodd" clip-rule="evenodd" d="M85.8421 285.153C84.7724 285.096 83.9008 285.615 83.2974 284.595C84.2848 283.825 84.8546 284.712 85.8421 285.153Z" fill="#79716B"/>
<path fill-rule="evenodd" clip-rule="evenodd" d="M306.784 452.992C307.521 453.009 308.258 453.025 308.987 453.042C308.247 453.024 307.515 453.008 306.784 452.992Z" fill="#79716B"/>
<path fill-rule="evenodd" clip-rule="evenodd" d="M478.101 57.7223C476.952 57.8253 475.802 57.9282 474.653 58.0312C475.803 57.9276 476.952 57.8253 478.101 57.7223Z" fill="#79716B"/>
<path fill-rule="evenodd" clip-rule="evenodd" d="M113.877 406.369C112.773 406.373 111.67 406.378 110.567 406.382C111.671 406.378 112.774 406.373 113.877 406.369Z" fill="#79716B"/>
<path fill-rule="evenodd" clip-rule="evenodd" d="M306.697 152.624C305.566 152.736 304.435 152.847 303.303 152.958C304.435 152.847 305.566 152.736 306.697 152.624Z" fill="#79716B"/>
<path fill-rule="evenodd" clip-rule="evenodd" d="M275.135 154.46C274.022 154.332 272.909 154.203 271.797 154.075C272.899 154.291 274.124 153.439 275.135 154.46Z" fill="#79716B"/>
<path fill-rule="evenodd" clip-rule="evenodd" d="M375.934 199.136C376.627 199.058 377.6 198.815 378.314 198.928C378.221 199.336 376.201 199.135 375.934 199.136Z" fill="#79716B"/>
<path fill-rule="evenodd" clip-rule="evenodd" d="M305.334 286.445C306.08 286.459 306.827 286.473 307.566 286.486C306.817 286.472 306.076 286.458 305.334 286.445Z" fill="#79716B"/>
<path fill-rule="evenodd" clip-rule="evenodd" d="M237.898 197.528C236.808 197.634 235.718 197.739 234.628 197.844C235.719 197.738 236.808 197.634 237.898 197.528Z" fill="#79716B"/>
<path fill-rule="evenodd" clip-rule="evenodd" d="M115.82 193.812C116.414 193.828 117.009 193.844 117.595 193.86C116.998 193.844 116.409 193.828 115.82 193.812Z" fill="#79716B"/>
<path fill-rule="evenodd" clip-rule="evenodd" d="M276.513 198.349C275.581 198.33 274.648 198.311 273.716 198.293C274.648 198.311 275.581 198.33 276.513 198.349Z" fill="#79716B"/>
<path fill-rule="evenodd" clip-rule="evenodd" d="M103.45 191.29C102.507 191.407 101.565 191.523 100.623 191.639C101.567 191.522 102.508 191.406 103.45 191.29Z" fill="#79716B"/>
<path fill-rule="evenodd" clip-rule="evenodd" d="M232.775 183.281C233.357 183.305 233.939 183.328 234.514 183.353C233.928 183.331 233.351 183.307 232.775 183.281Z" fill="#79716B"/>
<path fill-rule="evenodd" clip-rule="evenodd" d="M277.192 281.205C277.783 281.166 278.374 281.127 278.957 281.088C278.364 281.126 277.778 281.166 277.192 281.205Z" fill="#79716B"/>
<path fill-rule="evenodd" clip-rule="evenodd" d="M322.416 204.525C321.465 204.407 320.514 204.288 319.565 204.17C320.514 204.288 321.465 204.407 322.416 204.525Z" fill="#79716B"/>
<path fill-rule="evenodd" clip-rule="evenodd" d="M92.9894 351.327C93.6065 351.318 94.2235 351.311 94.8335 351.3C94.2145 351.309 93.6013 351.318 92.9894 351.327Z" fill="#79716B"/>
<path fill-rule="evenodd" clip-rule="evenodd" d="M42.3242 274.649C41.3412 274.55 40.3583 274.45 39.3748 274.351C40.3577 274.45 41.3406 274.55 42.3242 274.649Z" fill="#79716B"/>
<path fill-rule="evenodd" clip-rule="evenodd" d="M21.3509 386.935C20.3848 387.046 19.4188 387.158 18.452 387.269C19.4194 387.157 20.3848 387.046 21.3509 386.935Z" fill="#79716B"/>
<path fill-rule="evenodd" clip-rule="evenodd" d="M547.999 125.518C547.923 126.354 547.848 127.189 547.77 128.021C547.846 127.184 547.922 126.352 547.999 125.518Z" fill="#79716B"/>
<path fill-rule="evenodd" clip-rule="evenodd" d="M119.651 405.534C118.679 405.645 117.707 405.757 116.736 405.869C117.708 405.757 118.68 405.645 119.651 405.534Z" fill="#79716B"/>
<path fill-rule="evenodd" clip-rule="evenodd" d="M110.115 406.498C109.132 407.185 108.149 407.223 107.165 406.5C108.148 406.499 109.132 406.498 110.115 406.498Z" fill="#79716B"/>
<path fill-rule="evenodd" clip-rule="evenodd" d="M91.4673 407.319C90.5135 407.32 89.5604 407.321 88.6072 407.321C89.561 407.321 90.5142 407.32 91.4673 407.319Z" fill="#79716B"/>
<path fill-rule="evenodd" clip-rule="evenodd" d="M203.007 82.2876C202.926 81.4413 202.844 80.5957 202.763 79.7526C202.844 80.6002 202.926 81.4439 203.007 82.2876Z" fill="#79716B"/>
<path fill-rule="evenodd" clip-rule="evenodd" d="M307.164 63.3903C306.206 63.5088 305.248 63.6266 304.29 63.7444C305.248 63.6266 306.207 63.5088 307.164 63.3903Z" fill="#79716B"/>
<path fill-rule="evenodd" clip-rule="evenodd" d="M159.302 175.709C159.902 175.7 160.501 175.691 161.093 175.682C160.49 175.691 159.897 175.7 159.302 175.709Z" fill="#79716B"/>
<path fill-rule="evenodd" clip-rule="evenodd" d="M246.067 166.337C249.247 165.812 252.427 165.638 255.607 166.335L246.067 166.337Z" fill="#79716B"/>
<path fill-rule="evenodd" clip-rule="evenodd" d="M330.883 130.564C331.544 128.835 331.709 128.186 333.325 127.291C332.652 128.972 332.547 129.87 330.883 130.564Z" fill="#79716B"/>
<path fill-rule="evenodd" clip-rule="evenodd" d="M408.433 301.662C408.497 303.459 408.56 305.257 408.624 307.052C408.56 305.254 408.496 303.458 408.433 301.662Z" fill="#79716B"/>
<path fill-rule="evenodd" clip-rule="evenodd" d="M523.762 59.7749C522.323 59.8072 520.885 59.8403 519.452 59.8726C520.893 59.8403 522.327 59.8072 523.762 59.7749Z" fill="#79716B"/>
<path fill-rule="evenodd" clip-rule="evenodd" d="M332.114 333.609C332.164 335.107 332.214 336.606 332.264 338.103C332.213 336.604 332.164 335.107 332.114 333.609Z" fill="#79716B"/>
<path fill-rule="evenodd" clip-rule="evenodd" d="M279.347 208.629C278.471 208.637 277.596 208.645 276.729 208.656C277.607 208.648 278.476 208.638 279.347 208.629Z" fill="#79716B"/>
<path fill-rule="evenodd" clip-rule="evenodd" d="M276.494 160.996C275.774 160.972 275.053 160.947 274.341 160.925C275.064 160.95 275.779 160.973 276.494 160.996Z" fill="#79716B"/>
<path fill-rule="evenodd" clip-rule="evenodd" d="M160.643 285.629C161.796 285.528 162.949 285.428 164.102 285.328C162.949 285.427 161.796 285.528 160.643 285.629Z" fill="#79716B"/>
<path fill-rule="evenodd" clip-rule="evenodd" d="M164.847 287.456C164.274 287.453 163.701 287.449 163.135 287.446C163.711 287.45 164.279 287.453 164.847 287.456Z" fill="#79716B"/>
<path fill-rule="evenodd" clip-rule="evenodd" d="M407.93 261.703C408.016 260.858 408.102 260.014 408.186 259.172C408.102 260.018 408.016 260.86 407.93 261.703Z" fill="#79716B"/>
<path fill-rule="evenodd" clip-rule="evenodd" d="M235.84 176.316C236.563 176.377 237.286 176.439 238.01 176.501C237.202 176.542 236.394 176.583 235.588 176.625C235.592 176.459 235.676 176.356 235.84 176.316Z" fill="#79716B"/>
<path fill-rule="evenodd" clip-rule="evenodd" d="M421.562 318.391C421.516 317.622 421.469 316.852 421.425 316.087C421.471 316.858 421.516 317.625 421.562 318.391Z" fill="#79716B"/>
<path fill-rule="evenodd" clip-rule="evenodd" d="M248.816 173.381C248.235 173.392 247.655 173.403 247.082 173.414C247.665 173.403 248.24 173.392 248.816 173.381Z" fill="#79716B"/>
<path fill-rule="evenodd" clip-rule="evenodd" d="M260.34 206.747C259.745 206.757 259.15 206.765 258.562 206.775C259.159 206.767 259.75 206.757 260.34 206.747Z" fill="#79716B"/>
<path fill-rule="evenodd" clip-rule="evenodd" d="M225.912 90.3103C226.537 90.6438 226.212 92.1098 225.603 91.9699C225.706 91.4163 225.809 90.8633 225.912 90.3103Z" fill="#79716B"/>
<path fill-rule="evenodd" clip-rule="evenodd" d="M548.048 264.543C547.474 264.528 546.9 264.513 546.334 264.498C546.91 264.513 547.479 264.528 548.048 264.543Z" fill="#79716B"/>
<path fill-rule="evenodd" clip-rule="evenodd" d="M198.636 82.7084C198.575 81.4166 198.515 80.1255 198.455 78.8376C198.515 80.1307 198.576 81.4192 198.636 82.7084Z" fill="#79716B"/>
<path fill-rule="evenodd" clip-rule="evenodd" d="M307.338 447.988C308.223 448.118 309.106 448.247 309.99 448.377C309.105 448.247 308.222 448.118 307.338 447.988Z" fill="#79716B"/>
<path fill-rule="evenodd" clip-rule="evenodd" d="M301.494 115.437C298.376 116.078 295.174 116.414 292.129 117.359C291.37 117.594 288.877 119.042 287.967 118.661C286.585 118.08 287.284 116.59 287.866 115.795C289.424 113.668 292.211 112.477 294.767 112.504C297.317 112.531 300.819 112.438 301.494 115.437Z" fill="#79716B"/>
<path fill-rule="evenodd" clip-rule="evenodd" d="M292.831 121.141C296.264 123.544 298.887 124.728 299.177 119.327C302.898 119.834 301.231 125.826 298.415 126.278C295.351 126.77 293.307 123.709 292.831 121.141Z" fill="#79716B"/>
</svg>
