<?xml version="1.0" encoding="UTF-8"?>
<svg id="Layer_2" data-name="Layer 2" xmlns="http://www.w3.org/2000/svg" viewBox="0 0 1178.57 281.86">
  <defs>
    <style>
      .cls-1 {
        fill: #1c1917;
      }

      .cls-2 {
        fill: #009689;
      }
    </style>
  </defs>
  <g id="Layer_1-2" data-name="Layer 1">
    <g>
      <path class="cls-1" d="M154.32,241.18l24.6-14.06c2.46-1.41,5.48-1.41,7.94,0l24.6,14.06v-82.7h-57.14v82.7Z"/>
      <path class="cls-1" d="M269.39,216.52l-7.45,2.92-5.84-14.9,7.45-2.92c7.53-2.95,15.97-8.34,21.2-18.18v-45.15c-11.31-21.29-37.76-21.6-39.18-21.6-2.12,0-4.16-.84-5.66-2.34-1.5-1.5-2.34-3.54-2.34-5.66,0-10.09,0-23.9-6.7-35.06-7.92-13.21-23.62-19.62-47.99-19.62s-40.07,6.42-47.99,19.62c-6.7,11.16-6.7,24.98-6.7,35.06,0,4.42-3.58,8-8,8-7.52,0-18.82,2.35-27.98,8.94-10.79,7.77-16.26,19.65-16.26,35.3,0,25.13,14.28,36,26.26,40.69l7.45,2.92-5.84,14.9-7.45-2.92c-13.6-5.33-36.43-19.64-36.43-55.59,0-26.27,12.46-40.76,22.92-48.28,10.49-7.55,21.75-10.36,29.4-11.39.29-10.62,1.73-23.91,8.9-35.86,10.91-18.18,31.67-27.39,61.71-27.39s50.81,9.22,61.71,27.39c7.17,11.96,8.61,25.25,8.9,35.86,7.65,1.02,18.91,3.83,29.4,11.39.61.44,1.23.91,1.85,1.4V14.94c0-8.25-6.69-14.94-14.94-14.94H14.94C6.69,0,0,6.69,0,14.94v251.98c0,8.25,6.69,14.94,14.94,14.94h254.88c8.25,0,14.94-6.69,14.94-14.94v-59.1c-5.36,4.18-10.86,6.94-15.36,8.7ZM227.46,254.97c0,2.85-1.52,5.49-3.98,6.92s-5.51,1.44-7.98.03l-32.6-18.63-32.6,18.63c-1.23.7-2.6,1.05-3.97,1.05s-2.77-.36-4.02-1.08c-2.47-1.43-3.98-4.07-3.98-6.92v-104.48c0-4.42,3.58-8,8-8h73.14c4.42,0,8,3.58,8,8v104.48Z"/>
    </g>
    <g>
      <path class="cls-1" d="M557.36,127.4c-4.17-6.58-9.44-11.52-15.83-14.82-6.39-3.29-13.84-4.94-22.37-4.94s-15.87,1.74-22.66,5.23-12.63,8.91-17.58,16.27c-4.93,7.36-8.76,16.66-11.47,27.88h-5.23c-.78-10.26-2.81-19.07-6.09-26.43-3.3-7.36-8-13.02-14.09-16.99-6.1-3.97-13.61-5.96-22.52-5.96s-15.97,1.8-22.36,5.37c-6.39,3.59-11.77,9.11-16.13,16.56-4.35,7.46-7.89,16.61-10.6,27.45h-5.23l-.29-45.32h-33.41v152.51h41.54v-70.3c.38-9.49,1.84-18.05,4.36-25.71,2.51-7.64,6.1-13.65,10.75-18.01,4.65-4.35,10.16-6.53,16.56-6.53,5.81,0,10.6,1.79,14.38,5.37s6.63,8.86,8.57,15.83c1.94,6.97,2.9,16.08,2.9,27.3v72.04h40.67v-70.3c.39-9.68,1.89-18.35,4.51-26,2.62-7.64,6.24-13.6,10.89-17.86,4.65-4.26,10.27-6.39,16.85-6.39,5.61,0,10.26,1.7,13.94,5.08,3.68,3.39,6.39,8.57,8.13,15.54,1.74,6.98,2.62,15.79,2.62,26.44v73.49h41.83v-78.43c0-12.97-1.06-24.3-3.19-33.99-2.14-9.68-5.28-17.82-9.44-24.4Z"/>
      <path class="cls-1" d="M727.3,221.95c-.29-7.07-.44-13.99-.44-20.77v-25.85c0-15.69-2.33-28.52-6.98-38.49-4.65-9.97-11.66-17.33-21.05-22.08-9.4-4.74-21.46-7.12-36.17-7.12-9.1,0-17.71.97-25.85,2.91-8.13,1.94-15.3,4.89-21.5,8.86-6.2,3.97-11.43,8.86-15.68,14.67-4.26,5.81-7.56,12.68-9.88,20.62l36.88,11.33c1.55-6,4.02-10.99,7.41-14.96,3.39-3.97,7.45-6.87,12.21-8.71,4.74-1.84,9.82-2.76,15.25-2.76,8.52,0,14.72,1.94,18.59,5.81,3.87,3.88,5.82,8.52,5.82,13.94,0,3.88-.98,6.83-2.9,8.86-1.95,2.04-4.9,3.49-8.87,4.36s-8.95,1.79-14.96,2.76c-12,1.74-22.47,3.77-31.37,6.1-8.91,2.32-16.51,5.23-22.81,8.72-6.29,3.48-11.04,8.09-14.24,13.8-3.19,5.72-4.78,12.74-4.78,21.06,0,9.3,1.83,17.14,5.52,23.53,3.67,6.39,8.8,11.29,15.4,14.67,6.58,3.39,14.23,5.08,22.95,5.08s17.28-1.79,24.54-5.37c7.27-3.58,13.42-8.42,18.45-14.52,5.04-6.1,9.01-12.73,11.91-19.9h4.94c.38,6.2.91,12.49,1.59,18.88.68,6.39,1.31,12.01,1.89,16.85h37.47c-.78-6.97-1.45-13.99-2.03-21.06-.58-7.07-1.02-14.14-1.31-21.21ZM679.51,221.22c-3.1,3.68-6.39,6.73-9.88,9.15-3.49,2.42-7.17,4.31-11.04,5.67-3.88,1.36-7.56,2.03-11.05,2.03-6.39,0-11.52-1.74-15.4-5.23-3.87-3.49-5.81-8.23-5.81-14.24,0-4.65,1.06-8.32,3.2-11.04,2.13-2.71,5.12-4.8,9.01-6.25,3.87-1.45,8.22-2.66,13.07-3.63,4.84-.97,9.73-1.84,14.67-2.62,4.93-.77,9.77-1.89,14.52-3.34,2.02-.62,3.9-1.34,5.66-2.15v19.15c-1.55,4.65-3.87,8.81-6.96,12.49Z"/>
      <path class="cls-1" d="M840.74,107.93c-10.07,0-18.54,1.99-25.42,5.95-6.87,3.97-12.15,10.02-15.83,18.16-3.68,8.13-6.29,18.79-7.84,31.96h-5.52l-.3-52.29h-34.57v152.51h41.83v-70.3c1.36-9.3,3.68-17.24,6.98-23.82,3.3-6.58,7.74-11.57,13.37-14.96,5.61-3.39,12.2-5.08,19.76-5.08,2.51,0,5.52.24,9,.73,3.49.48,6.69,1.4,9.59,2.76l1.74-44.44c-2.71-.39-5.14-.68-7.26-.87-2.14-.19-3.98-.29-5.52-.29Z"/>
      <path class="cls-1" d="M1004.28,241.56c-2.52-7.75-5.48-15.44-8.86-23.09-3.39-7.65-7.85-14.38-13.37-20.19-5.52-5.81-12.59-10.12-21.2-12.92-8.62-2.81-19.32-3.05-32.1-.73v-4.94c10.07-1.74,19.36-4.84,27.88-9.29,8.53-4.46,16.08-9.78,22.66-15.98,6.58-6.2,12.25-13.03,17-20.48,4.74-7.45,8.57-14.86,11.47-22.22h-47.65c-2.71,5.23-5.86,10.56-9.44,15.98-3.58,5.42-7.64,10.74-12.2,15.98-4.55,5.23-9.63,10.27-15.25,15.1-5.62,4.84-11.33,9.2-17.14,13.07V56.22h-41.26v207.99h41.26v-61.88h11.61c9.1,0,16.36,1.99,21.8,5.96,5.41,3.97,9.77,9.54,13.07,16.7,3.29,7.17,6.29,15.5,9.01,24.99l4.06,14.23h45.61l-6.98-22.66Z"/>
    </g>
    <path class="cls-2" d="M1044.94,88.76c-8.13,0-14.38-1.74-18.73-5.23-4.36-3.48-6.54-8.42-6.54-14.81,0-6.78,2.14-11.91,6.39-15.4,4.26-3.49,10.56-5.23,18.88-5.23s14.43,1.74,18.88,5.23c4.46,3.48,6.68,8.62,6.68,15.4s-2.17,11.57-6.53,14.96c-4.36,3.39-10.71,5.08-19.03,5.08ZM1024.02,264.22V111.71h41.83v152.51h-41.83Z"/>
    <path class="cls-2" d="M1148.65,267.7c-16.85,0-29.35-4.5-37.48-13.51s-12.2-23.39-12.2-43.14v-66.24h-21.79l.57-33.12h15.11c5.82,0,10.22-.87,13.22-2.61,3-1.74,4.89-4.94,5.67-9.59l3.49-21.79h23.82v33.99h38.64v33.99h-38.64v63.62c0,6.78,1.65,11.81,4.94,15.1,3.29,3.3,8.22,4.94,14.81,4.94,3.87,0,7.45-.44,10.75-1.31,3.29-.87,6.28-2.18,9.01-3.92v39.21c-6.01,1.74-11.53,2.9-16.57,3.49-5.03.58-9.48.87-13.35.87Z"/>
  </g>
</svg>